<?xml version="1.0" standalone="no"?>
<!DOCTYPE svg PUBLIC "-//W3C//DTD SVG 1.1//EN" "http://www.w3.org/Graphics/SVG/1.1/DTD/svg11.dtd" >
<svg xmlns="http://www.w3.org/2000/svg">
<metadata>
This is a custom SVG font generated by IcoMoon.
<iconset grid="16"></iconset>
</metadata>
<defs>
<font id="booico" horiz-adv-x="512" >
<font-face units-per-em="512" ascent="480" descent="-32" />
<missing-glyph horiz-adv-x="512" />
<glyph unicode="&#xe000;" d="M 256.00,480.00C 114.624,480.00,0.00,365.376,0.00,224.00s 114.624-256.00, 256.00-256.00s 256.00,114.624, 256.00,256.00S 397.376,480.00, 256.00,480.00z M 256.00,32.00
			c-106.016,0.00-192.00,85.984-192.00,192.00s 85.984,192.00, 192.00,192.00s 192.00-85.984, 192.00-192.00S 362.016,32.00, 256.00,32.00zM 384.00,256.00 L 384.00,192.00 L 224.00,192.00 L 224.00,352.00 L 288.00,352.00 L 288.00,256.00 Z"  />
<glyph unicode="&#xe001;" d="M 256.00,480.00C 114.624,480.00,0.00,365.376,0.00,224.00s 114.624-256.00, 256.00-256.00s 256.00,114.624, 256.00,256.00S 397.376,480.00, 256.00,480.00z M 256.00,32.00
			c-106.016,0.00-192.00,85.984-192.00,192.00s 85.984,192.00, 192.00,192.00s 192.00-85.984, 192.00-192.00S 362.016,32.00, 256.00,32.00z M 128.00,192.00l 256.00,0.00 L 384.00,256.00 L 128.00,256.00 L 128.00,192.00 z"  />
<glyph unicode="&#xe002;" d="M 256.00,480.00C 114.624,480.00,0.00,365.376,0.00,224.00s 114.624-256.00, 256.00-256.00s 256.00,114.624, 256.00,256.00S 397.376,480.00, 256.00,480.00z M 256.00,32.00
			c-106.016,0.00-192.00,85.984-192.00,192.00s 85.984,192.00, 192.00,192.00s 192.00-85.984, 192.00-192.00S 362.016,32.00, 256.00,32.00zM 384.00,192.00 L 288.00,192.00 L 288.00,96.00 L 224.00,96.00 L 224.00,192.00 L 128.00,192.00 L 128.00,256.00 L 224.00,256.00 L 224.00,352.00 L 288.00,352.00 L 288.00,256.00 L 384.00,256.00 Z"  />
<glyph unicode="&#xe003;" d="M 436.992,405.024c-99.936,99.968-262.048,99.968-362.016,0.00
			c-100.00-99.968-100.00-262.08,0.00-362.016c 99.968-100.00, 262.08-100.00, 362.016,0.00C 536.992,142.944, 536.992,305.056, 436.992,405.024z M 391.744,88.256
			c-74.976-75.008-196.544-75.008-271.52,0.00c-74.976,74.976-74.976,196.544,0.00,271.52c 74.976,74.976, 196.544,74.976, 271.52,0.00
			C 466.752,284.768, 466.752,163.232, 391.744,88.256zM 301.248,224.00 L 369.12,156.128 L 323.872,110.88 L 256.00,178.752 L 188.128,110.88 L 142.848,156.128 L 210.72,224.00 L 142.848,291.872 L 188.128,337.152 L 256.00,269.28 L 323.872,337.152 L 369.12,291.872 Z"  />
<glyph unicode="&#xe004;" d="M 288.00,352.00c0.00,0.00-0.992,0.00-64.00,0.00S 160.00,288.00, 160.00,288.00l0.00-32.00 l 64.00,0.00 c0.00,0.00-0.992,32.00, 32.00,32.00s 32.00-32.00, 32.00-32.00C 251.008,256.00, 224.00,192.00, 224.00,192.00l 64.00,0.00 
			c0.00,28.00, 32.00,32.00, 32.00,32.00s 32.00,4.00, 32.00,64.00S 288.00,352.00, 288.00,352.00z M 256.00,480.00C 114.624,480.00,0.00,365.376,0.00,224.00s 114.624-256.00, 256.00-256.00s 256.00,114.624, 256.00,256.00S 397.376,480.00, 256.00,480.00z M 256.00,32.00
			c-106.016,0.00-192.00,85.984-192.00,192.00s 85.984,192.00, 192.00,192.00s 192.00-85.984, 192.00-192.00S 362.016,32.00, 256.00,32.00z M 224.00,96.00l 64.00,0.00 l0.00,64.00 L 224.00,160.00 L 224.00,96.00 z"  />
<glyph unicode="&#xe005;" d="M 256.00-32.00c-141.376,0.00-256.00,114.624-256.00,256.00s 114.624,256.00, 256.00,256.00s 256.00-114.624, 256.00-256.00S 397.376-32.00, 256.00-32.00z M 256.00,416.00
	C 149.984,416.00, 64.00,330.016, 64.00,224.00s 85.984-192.00, 192.00-192.00s 192.00,85.984, 192.00,192.00S 362.016,416.00, 256.00,416.00z M 350.08,108.576l-5.60-3.264l-16.288-9.888l-9.60-7.008
	c-7.136-3.36-14.56-6.048-22.24-8.384l0.00,9.44 l-2.72,21.76c0.00,0.00-1.344,12.512-3.392,15.808c-1.984,3.296-6.752,7.872-11.488,9.888
	c-4.736,1.984-8.128,1.984-10.848,5.248c-2.72,3.328-4.704,9.248-8.128,14.496c-3.392,5.28-7.456,10.56-7.456,13.184s0.00,29.664,0.00,29.664
	l 3.392,25.024l 7.456,5.28l 8.768,9.888l 6.08,1.984L 299.072,237.76l 14.944,0.00 l 6.048-12.512l 14.24-11.20l 8.80-13.856l 11.488-3.936l 12.864,0.00 
	l 8.80-10.56l 5.44-11.20l 2.016-7.936l0.00-13.152 l-1.408-7.776C 373.76,131.52, 362.88,119.136, 350.08,108.576z M 297.728,335.936L 282.816,328.00l-5.44-15.136
	L 268.576,304.96l-29.12,0.00 L 225.888,299.68l-0.672-10.56L 219.808,280.576L 218.432,271.36l 2.72-7.904l 3.392-7.936c0.00,0.00, 8.128-9.216,0.00-15.808
	c0.00,0.00-10.176,0.00-12.192,3.296S 195.392,255.52, 192.704,258.176c-2.72,2.656-11.52,5.28-11.52,5.28L 170.336,267.392L 160.16,268.064l 0.672,13.824
	L 160.16,293.76L 156.096,302.336l-11.52,8.576L 143.904,320.096l 1.408,5.12c 27.456,26.56, 65.248,42.976, 107.008,42.976c 23.552,0.00, 45.60-5.664, 65.472-14.976
	L 317.376,349.76L 297.728,335.936z"  />
<glyph unicode="&#xe006;" d="M 512.00,272.00C 512.00,386.88, 418.88,480.00, 304.00,480.00l-96.00,0.00 C 93.12,480.00,0.00,386.88,0.00,272.00S 93.12,64.00, 208.00,64.00l 64.00,0.00 l 144.00-96.00l0.00,128.00 
	l-1.504,0.00 C 472.992,132.80, 512.00,197.792, 512.00,272.00z M 352.00,136.80L 352.00,128.00 l0.00-48.00 L 272.00,128.00l-64.00,0.00 C 128.48,128.00, 64.00,192.48, 64.00,272.00S 128.48,416.00, 208.00,416.00l 96.00,0.00 
	C 383.52,416.00, 448.00,351.52, 448.00,272.00C 448.00,209.376, 407.808,156.672, 352.00,136.80z"  />
<glyph unicode="&#xe007;" d="M 448.00,480.00L 64.00,480.00 C 28.672,480.00,0.00,451.328,0.00,416.00l0.00-288.00 c0.00-35.328, 28.672-64.00, 64.00-64.00l 208.00,0.00 l 144.00-96.00l0.00,96.00 l 32.00,0.00 
		c 35.328,0.00, 64.00,28.672, 64.00,64.00L 512.00,416.00 C 512.00,451.328, 483.328,480.00, 448.00,480.00z M 448.00,160.00c0.00-17.696-14.304-32.00-32.00-32.00l-64.00,0.00 l0.00-48.00 L 272.00,128.00L 96.00,128.00 c-17.696,0.00-32.00,14.304-32.00,32.00L 64.00,384.00 
		c0.00,17.664, 14.304,32.00, 32.00,32.00l 320.00,0.00 c 17.696,0.00, 32.00-14.336, 32.00-32.00L 448.00,160.00 zM 128.00,352.00L 384.00,352.00L 384.00,288.00L 128.00,288.00zM 128.00,256.00L 384.00,256.00L 384.00,192.00L 128.00,192.00z"  />
<glyph unicode="&#xe008;" d="M 256.00,96.00l 128.00,0.00 l0.00,64.00 L 256.00,160.00 L 256.00,96.00 z M 128.00,96.00l 64.00,0.00 l0.00,64.00 L 128.00,160.00 L 128.00,96.00 z M 128.00,192.00l 64.00,0.00 L 192.00,256.00 L 128.00,256.00 L 128.00,192.00 z M 256.00,288.00l 128.00,0.00 L 384.00,352.00 L 256.00,352.00 L 256.00,288.00 z M 448.00,480.00L 64.00,480.00 
			C 28.672,480.00,0.00,451.328,0.00,416.00l0.00-384.00 c0.00-35.328, 28.672-64.00, 64.00-64.00l 384.00,0.00 c 35.328,0.00, 64.00,28.672, 64.00,64.00L 512.00,416.00 C 512.00,451.328, 483.328,480.00, 448.00,480.00z M 448.00,64.00c0.00-17.696-14.304-32.00-32.00-32.00L 96.00,32.00 
			c-17.664,0.00-32.00,14.304-32.00,32.00L 64.00,384.00 c0.00,17.664, 14.336,32.00, 32.00,32.00l 320.00,0.00 c 17.696,0.00, 32.00-14.336, 32.00-32.00L 448.00,64.00 z M 256.00,192.00l 128.00,0.00 L 384.00,256.00 L 256.00,256.00 L 256.00,192.00 z M 128.00,288.00l 64.00,0.00 L 192.00,352.00 L 128.00,352.00 L 128.00,288.00 z"  />
<glyph unicode="&#xe009;" d="M 448.00-32.00L 64.00-32.00 c-35.328,0.00-64.00,28.672-64.00,64.00L0.00,416.00 c0.00,35.328, 28.672,64.00, 64.00,64.00l 288.00,0.00 L 288.00,416.00L 96.00,416.00 C 78.336,416.00, 64.00,401.664, 64.00,384.00
	l0.00-320.00 c0.00-17.696, 14.336-32.00, 32.00-32.00l 320.00,0.00 c 17.696,0.00, 32.00,14.304, 32.00,32.00L 448.00,256.00 l 64.00,64.00l0.00-288.00 C 512.00-3.328, 483.328-32.00, 448.00-32.00z M 448.00,416.00l-32.00,32.00L 416.00,480.00 c0.00,0.00, 96.00,0.992, 96.00-96.00l-32.00,0.00 L 448.00,416.00z M 160.00,128.00L 160.00,224.00 
	l 32.00,0.00 l 64.00-64.00l0.00-32.00 L 160.00,128.00 z M 448.00,352.00L 288.00,192.00L 224.00,256.00l 160.00,160.00L 448.00,352.00z"  />
<glyph unicode="&#xe00a;" d="M 160.00,96.00l 64.00,0.00 L 224.00,256.00 L 160.00,256.00 L 160.00,96.00 z M 352.00,384.00L 352.00,416.00 c0.00,35.328-28.672,64.00-64.00,64.00L 224.00,480.00 C 188.672,480.00, 160.00,451.328, 160.00,416.00l0.00-32.00 L0.00,384.00 l0.00-32.00 
			c0.00-17.664, 14.336-32.00, 32.00-32.00l0.00-288.00 c0.00-35.328, 28.672-64.00, 64.00-64.00l 320.00,0.00 c 35.328,0.00, 64.00,28.672, 64.00,64.00L 480.00,320.00 c 17.696,0.00, 32.00,14.336, 32.00,32.00L 512.00,384.00 L 352.00,384.00 z M 224.00,416.00l 64.00,0.00 l0.00-32.00 L 224.00,384.00 L 224.00,416.00 z M 416.00,64.00
			c0.00-17.696-14.304-32.00-32.00-32.00L 128.00,32.00 c-17.664,0.00-32.00,14.304-32.00,32.00L 96.00,288.00 c0.00,17.664, 14.336,32.00, 32.00,32.00l 256.00,0.00 c 17.696,0.00, 32.00-14.336, 32.00-32.00L 416.00,64.00 z M 288.00,96.00l 64.00,0.00 L 352.00,256.00 L 288.00,256.00 L 288.00,96.00 z"  />
<glyph unicode="&#xe00b;" d="M 448.00,384.00l-96.00,0.00 L 352.00,416.00 c0.00,35.328-28.672,64.00-64.00,64.00L 224.00,480.00 C 188.672,480.00, 160.00,451.328, 160.00,416.00l0.00-32.00 L 64.00,384.00 C 28.672,384.00,0.00,355.328,0.00,320.00
			l0.00-288.00 c0.00-35.328, 28.672-64.00, 64.00-64.00l 384.00,0.00 c 35.328,0.00, 64.00,28.672, 64.00,64.00L 512.00,320.00 C 512.00,355.328, 483.328,384.00, 448.00,384.00z M 224.00,400.00C 224.00,408.832, 231.20,416.00, 240.00,416.00l 32.00,0.00 C 280.832,416.00, 288.00,408.832, 288.00,400.00
			L 288.00,384.00 L 224.00,384.00 L 224.00,400.00 z M 448.00,64.00c0.00-17.696-14.304-32.00-32.00-32.00L 96.00,32.00 c-17.664,0.00-32.00,14.304-32.00,32.00l0.00,96.00 l 128.00,0.00 c0.00-17.696, 14.336-32.00, 32.00-32.00l 64.00,0.00 c 17.696,0.00, 32.00,14.304, 32.00,32.00l 128.00,0.00 L 448.00,64.00 z M 448.00,192.00l-128.00,0.00 
			c0.00,17.696-14.304,32.00-32.00,32.00L 224.00,224.00 C 206.336,224.00, 192.00,209.696, 192.00,192.00L 64.00,192.00 L 64.00,288.00 c0.00,17.664, 14.336,32.00, 32.00,32.00l 320.00,0.00 c 17.696,0.00, 32.00-14.336, 32.00-32.00L 448.00,192.00 z"  />
<glyph unicode="&#xe00c;" d="M 256.00,160.00L 384.00,160.00L 384.00,96.00L 256.00,96.00zM 448.00,480.00L 128.00,480.00 C 92.672,480.00, 64.00,451.328, 64.00,416.00L 32.00,416.00 C 14.336,416.00,0.00,401.664,0.00,384.00l0.00-224.00 l0.00-128.00 c0.00-35.328, 28.672-64.00, 64.00-64.00l 384.00,0.00 c 35.328,0.00, 64.00,28.672, 64.00,64.00L 512.00,416.00 
		C 512.00,451.328, 483.328,480.00, 448.00,480.00z M 128.00,64.00c0.00-17.696-14.336-32.00-32.00-32.00s-32.00,14.304-32.00,32.00L 64.00,320.00 c0.00,17.664, 14.336,32.00, 32.00,32.00s 32.00-14.336, 32.00-32.00L 128.00,64.00 z M 448.00,64.00
		c0.00-17.696-14.304-32.00-32.00-32.00L 224.00,32.00 c-17.664,0.00-32.00,14.304-32.00,32.00L 192.00,384.00 c0.00,17.664, 14.336,32.00, 32.00,32.00l 192.00,0.00 c 17.696,0.00, 32.00-14.336, 32.00-32.00L 448.00,64.00 zM 256.00,256.00L 384.00,256.00L 384.00,192.00L 256.00,192.00zM 256.00,352.00L 384.00,352.00L 384.00,288.00L 256.00,288.00z"  />
<glyph unicode="&#xe00d;" d="M 128.00,192.00l 64.00,0.00 L 192.00,256.00 L 128.00,256.00 L 128.00,192.00 z M 128.00,96.00l 64.00,0.00 l0.00,64.00 L 128.00,160.00 L 128.00,96.00 z M 160.00,480.00L 96.00,480.00 l0.00-64.00 l 64.00,0.00 L 160.00,480.00 z M 224.00,96.00l 64.00,0.00 l0.00,64.00 L 224.00,160.00 L 224.00,96.00 z M 224.00,192.00l 64.00,0.00 L 288.00,256.00 L 224.00,256.00 L 224.00,192.00 z
			 M 448.00,480.00l0.00-64.00 c0.00-17.664-14.304-32.00-32.00-32.00l-64.00,0.00 c-17.696,0.00-32.00,14.336-32.00,32.00L 320.00,480.00 L 192.00,480.00 l0.00-64.00 c0.00-17.664-14.304-32.00-32.00-32.00L 96.00,384.00 C 78.304,384.00, 64.00,398.336, 64.00,416.00L 64.00,480.00 C 28.672,480.00,0.00,451.328,0.00,416.00l0.00-384.00 
			c0.00-35.328, 28.672-64.00, 64.00-64.00l 384.00,0.00 c 35.328,0.00, 64.00,28.672, 64.00,64.00L 512.00,416.00 C 512.00,451.328, 483.328,480.00, 448.00,480.00z M 448.00,64.00c0.00-17.696-14.304-32.00-32.00-32.00L 96.00,32.00 c-17.696,0.00-32.00,14.304-32.00,32.00L 64.00,288.00 
			c0.00,17.664, 14.304,32.00, 32.00,32.00l 320.00,0.00 c 17.696,0.00, 32.00-14.336, 32.00-32.00L 448.00,64.00 z M 320.00,96.00l 64.00,0.00 l0.00,64.00 l-64.00,0.00 L 320.00,96.00 z M 320.00,192.00l 64.00,0.00 L 384.00,256.00 l-64.00,0.00 L 320.00,192.00 z M 416.00,480.00l-64.00,0.00 l0.00-64.00 l 64.00,0.00 L 416.00,480.00 z"  />
<glyph unicode="&#xe00e;" d="M 128.00,288.00l 256.00,0.00 L 384.00,352.00 L 128.00,352.00 L 128.00,288.00 z M 448.00,480.00L 64.00,480.00 C 28.672,480.00,0.00,451.328,0.00,416.00l0.00-384.00 c0.00-35.328, 28.672-64.00, 64.00-64.00l 384.00,0.00 
			c 35.328,0.00, 64.00,28.672, 64.00,64.00L 512.00,416.00 C 512.00,451.328, 483.328,480.00, 448.00,480.00z M 448.00,160.00c0.00-17.696-14.304-32.00-32.00-32.00l-32.00,0.00 c-27.648,0.00-32.00-32.00-32.00-32.00l0.00-32.00 c0.00-17.696-14.304-32.00-32.00-32.00L 192.00,32.00 
			c-17.696,0.00-32.00,14.304-32.00,32.00l0.00,32.00 c0.00,0.00-0.192,32.00-32.00,32.00L 96.00,128.00 c-17.696,0.00-32.00,14.304-32.00,32.00L 64.00,384.00 c0.00,17.664, 14.304,32.00, 32.00,32.00l 320.00,0.00 c 17.696,0.00, 32.00-14.336, 32.00-32.00L 448.00,160.00 z M 128.00,192.00l 256.00,0.00 L 384.00,256.00 L 128.00,256.00 L 128.00,192.00 
			z"  />
<glyph unicode="&#xe00f;" d="M 448.00,480.00L 64.00,480.00 C 28.672,480.00,0.00,451.328,0.00,416.00l0.00-384.00 c0.00-35.328, 28.672-64.00, 64.00-64.00l 384.00,0.00 c 35.328,0.00, 64.00,28.672, 64.00,64.00L 512.00,416.00 C 512.00,451.328, 483.328,480.00, 448.00,480.00z M 448.00,64.00
			c0.00-17.696-14.304-32.00-32.00-32.00L 96.00,32.00 c-17.696,0.00-32.00,14.304-32.00,32.00L 64.00,384.00 c0.00,17.664, 14.304,32.00, 32.00,32.00l 320.00,0.00 c 17.696,0.00, 32.00-14.336, 32.00-32.00L 448.00,64.00 z M 256.00,288.00l0.00-32.00 L 224.00,256.00 l0.00-64.00 l 32.00,0.00 l0.00-96.00 l 64.00,0.00 L 320.00,192.00 l 32.00,0.00 L 352.00,256.00 l-32.00,0.00 L 320.00,288.00 l 32.00,0.00 L 352.00,352.00 
			L 315.424,352.00 C 285.184,352.00, 256.00,323.296, 256.00,288.00z"  />
<glyph unicode="&#xe010;" d="M 64.00,64.00 C 64.00,46.304 78.304,32.00 96.00,32.00 L 224.00,32.00 L 224.00-32.00 L 64.00-32.00 C 28.672-32.00 0.00-3.328 0.00,32.00 L 0.00,192.00 L 64.00,192.00 L 64.00,64.00 Z M 64.00,384.00 L 64.00,256.00 L 0.00,256.00 L 0.00,416.00 C 0.00,451.328 28.672,480.00 64.00,480.00 L 224.00,480.00 L 224.00,416.00 L 96.00,416.00 C 78.304,416.00 64.00,401.664 64.00,384.00 Z M 288.00,96.00 L 224.00,96.00 L 224.00,192.00 L 128.00,192.00 L 128.00,256.00 L 224.00,256.00 L 224.00,352.00 L 288.00,352.00 L 288.00,256.00 L 384.00,256.00 L 384.00,192.00 L 288.00,192.00 L 288.00,96.00 Z M 448.00,480.00 C 483.328,480.00 512.00,451.328 512.00,416.00 L 512.00,256.00 L 448.00,256.00 L 448.00,384.00 C 448.00,401.664 433.696,416.00 416.00,416.00 L 288.00,416.00 L 288.00,480.00 L 448.00,480.00 Z M 448.00,64.00 L 448.00,192.00 L 512.00,192.00 L 512.00,32.00 C 512.00-3.328 483.328-32.00 448.00-32.00 L 288.00-32.00 L 288.00,32.00 L 416.00,32.00 C 433.696,32.00 448.00,46.304 448.00,64.00 Z"  />
<glyph unicode="&#xe011;" d="M 448.00-32.00L 64.00-32.00 c-35.328,0.00-64.00,28.672-64.00,64.00L0.00,416.00 c0.00,35.328, 28.672,64.00, 64.00,64.00l 384.00,0.00 c 35.328,0.00, 64.00-28.672, 64.00-64.00l0.00-384.00 
	C 512.00-3.328, 483.328-32.00, 448.00-32.00z M 448.00,384.00c0.00,17.664-14.304,32.00-32.00,32.00L 96.00,416.00 C 78.336,416.00, 64.00,401.664, 64.00,384.00l0.00-224.00 c0.00-17.696, 14.336-32.00, 32.00-32.00l 32.00,0.00 c 31.808,0.00, 32.00-32.00, 32.00-32.00l0.00-16.00 L 160.00,64.00 
	c0.00-17.696, 14.336-32.00, 32.00-32.00l 128.00,0.00 c 17.696,0.00, 32.00,14.304, 32.00,32.00l0.00,16.00 L 352.00,96.00 c0.00,0.00, 4.32,32.00, 32.00,32.00l 32.00,0.00 c 17.696,0.00, 32.00,14.304, 32.00,32.00L 448.00,384.00 z M 288.00,96.00L 224.00,96.00 L 224.00,224.00 L 128.00,224.00 l 128.00,128.00l 128.00-128.00L 288.00,224.00 L 288.00,96.00 z"  />
<glyph unicode="&#xe012;" d="M 448.00-32.00L 64.00-32.00 c-35.328,0.00-64.00,28.672-64.00,64.00L0.00,416.00 c0.00,35.328, 28.672,64.00, 64.00,64.00l 384.00,0.00 c 35.328,0.00, 64.00-28.672, 64.00-64.00l0.00-384.00 
	C 512.00-3.328, 483.328-32.00, 448.00-32.00z M 448.00,384.00c0.00,17.664-14.304,32.00-32.00,32.00L 96.00,416.00 C 78.304,416.00, 64.00,401.664, 64.00,384.00l0.00-224.00 c0.00-17.696, 14.304-32.00, 32.00-32.00l 32.00,0.00 c 31.808,0.00, 32.00-32.00, 32.00-32.00l0.00-16.00 L 160.00,64.00 
	c0.00-17.696, 14.304-32.00, 32.00-32.00l 128.00,0.00 c 17.696,0.00, 32.00,14.304, 32.00,32.00l0.00,16.00 L 352.00,96.00 c0.00,0.00, 4.352,32.00, 32.00,32.00l 32.00,0.00 c 17.696,0.00, 32.00,14.304, 32.00,32.00L 448.00,384.00 z M 128.00,224.00l 96.00,0.00 L 224.00,352.00 l 64.00,0.00 l0.00-128.00 l 96.00,0.00 l-128.00-128.00L 128.00,224.00z"  />
<glyph unicode="&#xe013;" d="M 448.00,96.00c 35.328,0.00, 64.00,28.672, 64.00,64.00L 512.00,416.00 c0.00,35.328-28.672,64.00-64.00,64.00L 64.00,480.00 C 28.672,480.00,0.00,451.328,0.00,416.00l0.00-256.00 
			c0.00-35.328, 28.672-64.00, 64.00-64.00l 160.00,0.00 l0.00-64.00 L 32.00,32.00 c-17.696,0.00-32.00-14.304-32.00-32.00s 14.304-32.00, 32.00-32.00l 448.00,0.00 c 17.696,0.00, 32.00,14.304, 32.00,32.00s-14.304,32.00-32.00,32.00L 288.00,32.00 l0.00,64.00 L 448.00,96.00 z M 96.00,160.00
			c-17.696,0.00-32.00,14.304-32.00,32.00L 64.00,384.00 c0.00,17.664, 14.304,32.00, 32.00,32.00l 320.00,0.00 c 17.696,0.00, 32.00-14.336, 32.00-32.00l0.00-192.00 c0.00-17.696-14.304-32.00-32.00-32.00L 96.00,160.00 z"  />
<glyph unicode="&#xe014;" d="M 224.00,480.00L0.00,288.00l 224.00-160.00L 224.00,480.00 z M 224.00,352.00c0.00,0.00, 288.00,10.752, 288.00-384.00c0.00,0.00-84.224,288.00-288.00,288.00L 224.00,352.00 z"  />
<glyph unicode="&#xe015;" d="M 448.00,480.00L 256.00,480.00 C 220.672,480.00, 192.00,451.328, 192.00,416.00l0.00-192.00 c0.00-35.328, 28.672-64.00, 64.00-64.00l 192.00,0.00 c 35.328,0.00, 64.00,28.672, 64.00,64.00L 512.00,416.00 
			C 512.00,451.328, 483.328,480.00, 448.00,480.00z M 448.00,256.00c0.00-17.696-14.304-32.00-32.00-32.00L 288.00,224.00 C 270.304,224.00, 256.00,238.304, 256.00,256.00L 256.00,384.00 c0.00,17.664, 14.304,32.00, 32.00,32.00l 128.00,0.00 c 17.696,0.00, 32.00-14.336, 32.00-32.00L 448.00,256.00 z M 256.00,64.00
			c0.00-17.696-14.304-32.00-32.00-32.00L 96.00,32.00 c-17.696,0.00-32.00,14.304-32.00,32.00L 64.00,192.00 c0.00,17.696, 14.304,32.00, 32.00,32.00l 32.00,0.00 L 128.00,288.00 L 64.00,288.00 C 28.672,288.00,0.00,259.328,0.00,224.00l0.00-192.00 c0.00-35.328, 28.672-64.00, 64.00-64.00l 192.00,0.00 
			c 35.328,0.00, 64.00,28.672, 64.00,64.00l0.00,64.00 L 256.00,96.00 L 256.00,64.00 z"  />
<glyph unicode="&#xe016;" d="M 160.00,480.00L 64.00,480.00 C 28.672,480.00,0.00,451.328,0.00,416.00l0.00-96.00 c0.00-35.328, 28.672-64.00, 64.00-64.00l 96.00,0.00 c 35.328,0.00, 64.00,28.672, 64.00,64.00L 224.00,416.00 
			C 224.00,451.328, 195.328,480.00, 160.00,480.00z M 160.00,352.00c0.00-17.664-14.304-32.00-32.00-32.00L 96.00,320.00 C 78.304,320.00, 64.00,334.336, 64.00,352.00L 64.00,384.00 c0.00,17.664, 14.304,32.00, 32.00,32.00l 32.00,0.00 c 17.696,0.00, 32.00-14.336, 32.00-32.00L 160.00,352.00 z M 160.00,192.00L 64.00,192.00 
			c-35.328,0.00-64.00-28.672-64.00-64.00l0.00-96.00 c0.00-35.328, 28.672-64.00, 64.00-64.00l 96.00,0.00 c 35.328,0.00, 64.00,28.672, 64.00,64.00l0.00,96.00 C 224.00,163.328, 195.328,192.00, 160.00,192.00z M 160.00,64.00c0.00-17.696-14.304-32.00-32.00-32.00L 96.00,32.00 
			c-17.696,0.00-32.00,14.304-32.00,32.00l0.00,32.00 c0.00,17.696, 14.304,32.00, 32.00,32.00l 32.00,0.00 c 17.696,0.00, 32.00-14.304, 32.00-32.00L 160.00,64.00 z M 448.00,192.00l-96.00,0.00 c-35.328,0.00-64.00-28.672-64.00-64.00l0.00-96.00 c0.00-35.328, 28.672-64.00, 64.00-64.00l 96.00,0.00 
			c 35.328,0.00, 64.00,28.672, 64.00,64.00l0.00,96.00 C 512.00,163.328, 483.328,192.00, 448.00,192.00z M 448.00,64.00c0.00-17.696-14.304-32.00-32.00-32.00l-32.00,0.00 c-17.696,0.00-32.00,14.304-32.00,32.00l0.00,32.00 c0.00,17.696, 14.304,32.00, 32.00,32.00l 32.00,0.00 
			c 17.696,0.00, 32.00-14.304, 32.00-32.00L 448.00,64.00 z M 448.00,480.00l-96.00,0.00 C 316.672,480.00, 288.00,451.328, 288.00,416.00l0.00-96.00 c0.00-35.328, 28.672-64.00, 64.00-64.00l 96.00,0.00 c 35.328,0.00, 64.00,28.672, 64.00,64.00L 512.00,416.00 C 512.00,451.328, 483.328,480.00, 448.00,480.00z
			 M 448.00,352.00c0.00-17.664-14.304-32.00-32.00-32.00l-32.00,0.00 c-17.696,0.00-32.00,14.336-32.00,32.00L 352.00,384.00 c0.00,17.664, 14.304,32.00, 32.00,32.00l 32.00,0.00 c 17.696,0.00, 32.00-14.336, 32.00-32.00L 448.00,352.00 z"  />
<glyph unicode="&#xe017;" d="M 448.00,416.00L 64.00,416.00 C 28.672,416.00,0.00,387.328,0.00,352.00l0.00-256.00 c0.00-35.328, 28.672-64.00, 64.00-64.00l 384.00,0.00 c 35.328,0.00, 64.00,28.672, 64.00,64.00L 512.00,352.00 
			C 512.00,387.328, 483.328,416.00, 448.00,416.00z M 448.00,128.00c0.00-17.696-14.304-32.00-32.00-32.00L 96.00,96.00 c-17.664,0.00-32.00,14.304-32.00,32.00L 64.00,320.00 c0.00,17.696, 14.336,32.00, 32.00,32.00l 320.00,0.00 c 17.696,0.00, 32.00-14.304, 32.00-32.00L 448.00,128.00 z
			 M 368.00,304.00L 256.00,192.00L 144.00,304.00l-32.00-32.00L 160.00,224.00L 112.00,176.00l 32.00-32.00L 192.00,192.00l 64.00-48.00L 320.00,192.00l 48.00-48.00l 32.00,32.00L 352.00,224.00l 48.00,48.00L 368.00,304.00z"  />
<glyph unicode="&#xe018;" d="M 128.00,320.00A32.00,32.00 540.00 1 0 192.00,320A32.00,32.00 540.00 1 0 128.00,320zM 493.632,252.928L 266.528,480.00L0.00,480.00 l0.00-266.56 l 227.072-227.072c 24.544-24.512, 64.288-24.512, 88.864,0.00
		l 177.696,177.696C 518.112,188.64, 518.112,228.384, 493.632,252.928z M 427.008,186.304l-133.312-133.312c-12.256-12.256-32.128-12.256-44.384,0.00L 64.00,238.304L 64.00,416.00 
		l 177.696,0.00 l 185.312-185.312C 439.264,218.464, 439.264,198.56, 427.008,186.304z"  />
<glyph unicode="&#xe019;" d="M 448.00,480.00L 64.00,480.00 C 28.672,480.00,0.00,451.328,0.00,416.00l0.00-384.00 c0.00-35.328, 28.672-64.00, 64.00-64.00l 384.00,0.00 c 35.328,0.00, 64.00,28.672, 64.00,64.00L 512.00,416.00 
			C 512.00,451.328, 483.328,480.00, 448.00,480.00z M 384.00,416.00l 32.00,0.00 c 17.696,0.00, 32.00-14.304, 32.00-32.00l0.00-64.00 l-64.00,0.00 L 384.00,416.00 z M 448.00,288.00l0.00-128.00 l-64.00,0.00 L 384.00,288.00 L 448.00,288.00 z M 192.00,416.00l 128.00,0.00 l0.00-160.00 L 192.00,256.00 L 192.00,416.00 z M 128.00,32.00L 96.00,32.00 c-17.664,0.00-32.00,14.304-32.00,32.00l0.00,64.00 l 64.00,0.00 
			L 128.00,32.00 z M 128.00,160.00L 64.00,160.00 L 64.00,288.00 l 64.00,0.00 L 128.00,160.00 z M 128.00,320.00L 64.00,320.00 L 64.00,384.00 c0.00,17.696, 14.336,32.00, 32.00,32.00l 32.00,0.00 L 128.00,320.00 z M 320.00,32.00L 192.00,32.00 L 192.00,192.00 l 128.00,0.00 L 320.00,32.00 z M 416.00,32.00l-32.00,0.00 l0.00,96.00 l 64.00,0.00 l0.00-64.00 C 448.00,46.304, 433.696,32.00, 416.00,32.00z"  />
<glyph unicode="&#xe01a;" d="M 448.00,64.00c0.00-17.696-14.304-32.00-32.00-32.00L 96.00,32.00 c-17.664,0.00-32.00,14.304-32.00,32.00L 64.00,384.00 c0.00,17.696, 14.336,32.00, 32.00,32.00l 96.00,0.00 
			l 106.656,64.00L 64.00,480.00 C 28.672,480.00,0.00,451.328,0.00,416.00l0.00-384.00 c0.00-35.328, 28.672-64.00, 64.00-64.00l 384.00,0.00 c 35.328,0.00, 64.00,28.672, 64.00,64.00L 512.00,296.00 l-64.00-48.00L 448.00,64.00 z M 128.448,169.152
			C 127.936,163.584, 127.936,160.352, 127.936,160.352C 127.936,163.456, 128.352,166.08, 128.448,169.152z M 351.488,417.28c-0.352-3.264-0.512-2.656-0.544,0.192
			c-15.808,0.128-214.784-15.712-223.104-260.384c 2.368-12.288, 42.912,161.568, 224.064,197.472C 352.00,352.00, 352.00,288.00, 352.00,288.00l 160.00,96.00l-160.00,96.00
			c 0.544,0.288-1.216-50.88-1.024-62.528C 352.16,417.44, 352.576,417.376, 351.488,417.28z"  />
<glyph unicode="&#xe01b;" d="M 176.00,256.00C 202.528,256.00, 224.00,277.504, 224.00,304.00S 202.528,352.00, 176.00,352.00S 128.00,330.496, 128.00,304.00S 149.472,256.00, 176.00,256.00z M 448.00,480.00
			L 64.00,480.00 C 28.672,480.00,0.00,451.328,0.00,416.00l0.00-384.00 c0.00-35.328, 28.672-64.00, 64.00-64.00l 384.00,0.00 c 35.328,0.00, 64.00,28.672, 64.00,64.00L 512.00,416.00 C 512.00,451.328, 483.328,480.00, 448.00,480.00z M 448.00,64.00c0.00-17.696-14.304-32.00-32.00-32.00L 96.00,32.00 
			c-17.664,0.00-32.00,14.304-32.00,32.00L 64.00,384.00 c0.00,17.696, 14.336,32.00, 32.00,32.00l 320.00,0.00 c 17.696,0.00, 32.00-14.304, 32.00-32.00L 448.00,64.00 z M 224.00,128.00L 192.00,192.00l-64.00-96.00l 256.00,0.00 l-64.00,192.00L 224.00,128.00z"  />
<glyph unicode="&#xe01c;" d="M 480.00,61.056L 480.00,386.944 c 18.592,6.624, 32.00,24.192, 32.00,45.056C 512.00,458.496, 490.496,480.00, 464.00,480.00
			c-20.864,0.00-38.432-13.408-45.056-32.00L 93.056,448.00 C 86.432,466.592, 68.864,480.00, 48.00,480.00C 21.504,480.00,0.00,458.496,0.00,432.00c0.00-20.864, 13.408-38.432, 32.00-45.056l0.00-325.888 
			c-18.592-6.624-32.00-24.192-32.00-45.056C0.00-10.496, 21.504-32.00, 48.00-32.00c 20.864,0.00, 38.432,13.408, 45.056,32.00l 325.888,0.00 c 6.624-18.592, 24.192-32.00, 45.056-32.00
			c 26.496,0.00, 48.00,21.504, 48.00,48.00C 512.00,36.864, 498.592,54.432, 480.00,61.056z M 48.00,0.00C 39.168,0.00, 32.00,7.168, 32.00,16.00S 39.168,32.00, 48.00,32.00
			S 64.00,24.832, 64.00,16.00S 56.832,0.00, 48.00,0.00z M 48.00,416.00C 39.168,416.00, 32.00,423.168, 32.00,432.00S 39.168,448.00, 48.00,448.00S 64.00,440.832, 64.00,432.00S 56.832,416.00, 48.00,416.00z M 416.00,64.00L 96.00,64.00 L 96.00,384.00 l 320.00,0.00 L 416.00,64.00 z
			 M 464.00,448.00C 472.832,448.00, 480.00,440.832, 480.00,432.00S 472.832,416.00, 464.00,416.00S 448.00,423.168, 448.00,432.00S 455.168,448.00, 464.00,448.00z M 464.00,0.00c-8.832,0.00-16.00,7.168-16.00,16.00
			s 7.168,16.00, 16.00,16.00s 16.00-7.168, 16.00-16.00S 472.832,0.00, 464.00,0.00z"  />
<glyph unicode="&#xe01d;" d="M 502.816-22.816c-12.448-12.448-32.512-12.448-44.928,0.00L 233.152,201.888
	c-12.416,12.448-12.416,32.544,0.00,44.992c 12.448,12.416, 32.576,12.416, 44.992,0.00l 224.672-224.736C 515.264,9.696, 515.264-10.368, 502.816-22.816z
	 M 155.808,324.192c 11.936-11.936-11.136-100.256-11.136-100.256C 120.288,248.32, 88.96,301.92, 88.96,301.92s-89.088-12.928-89.088,0.00s 44.576,66.848, 44.576,66.848
	C 21.76,421.184, 22.144,457.856, 22.144,457.856S 58.816,458.24, 111.232,435.584c0.00,0.00, 53.92,44.576, 66.848,44.576s0.00-89.088,0.00-89.088S 231.68,359.712, 256.032,335.328
	C 256.032,335.328, 167.744,312.256, 155.808,324.192z"  />
<glyph unicode="&#xe01e;" d="M 348.928,480.00L 131.072,480.00 C 94.016,480.00, 64.00,450.40, 64.00,413.952l0.00-379.872 C 64.00-2.432, 94.016-32.00, 131.072-32.00
			l 217.888,0.00 C 385.984-32.00, 416.00-2.432, 416.00,34.048L 416.00,413.952 C 416.00,450.40, 385.984,480.00, 348.928,480.00z M 240.00,1.024c-13.888,0.00-25.12,11.104-25.12,24.768
			s 11.264,24.768, 25.12,24.768s 25.152-11.104, 25.152-24.768S 253.888,1.024, 240.00,1.024z M 352.00,128.00c0.00-18.24-13.504-32.00-32.00-32.00L 160.00,96.00 c-18.496,0.00-32.00,13.76-32.00,32.00L 128.00,384.00 
			c0.00,18.24, 13.504,32.00, 32.00,32.00l 160.00,0.00 c 18.496,0.00, 32.00-13.76, 32.00-32.00L 352.00,128.00 z"  />
<glyph unicode="&#xe01f;" d="M 254.912,480.00c0.00,0.00-174.912-1.984-174.912-191.008C 80.00,192.992, 254.912-32.00, 254.912-32.00
			S 432.00,191.008, 432.00,289.984C 432.00,478.016, 254.912,480.00, 254.912,480.00z M 255.328,64.00c0.00,0.00-111.168,154.592-111.36,220.608C 143.552,414.496, 255.264,416.00, 255.328,416.00
			c 0.192,0.00, 113.344-1.472, 112.288-130.688C 367.104,217.248, 255.328,64.00, 255.328,64.00z M 256.00,352.00C 229.504,352.00, 208.00,330.496, 208.00,304.00S 229.504,256.00, 256.00,256.00s 48.00,21.504, 48.00,48.00
			S 282.496,352.00, 256.00,352.00z"  />
<glyph unicode="&#xe020;" d="M 272.00,224.00l-32.00,0.00 C 213.472,224.00, 192.00,202.496, 192.00,176.00S 213.472,128.00, 240.00,128.00L 224.00,128.00 l0.00-32.00 l 64.00,0.00 l0.00,32.00 L 272.00,128.00 
			c 26.496,0.00, 48.00,21.504, 48.00,48.00S 298.496,224.00, 272.00,224.00z M 448.00,352.00l-35.232,0.00 C 397.952,425.024, 333.408,480.00, 256.00,480.00S 114.048,425.024, 99.232,352.00L 64.00,352.00 C 28.672,352.00,0.00,323.328,0.00,288.00l0.00-256.00 
			c0.00-35.328, 28.672-64.00, 64.00-64.00l 384.00,0.00 c 35.328,0.00, 64.00,28.672, 64.00,64.00L 512.00,288.00 C 512.00,323.328, 483.328,352.00, 448.00,352.00z M 256.00,416.00c 41.728,0.00, 76.896-26.784, 90.112-64.00L 165.888,352.00 
			C 179.104,389.216, 214.272,416.00, 256.00,416.00z M 448.00,64.00c0.00-17.696-14.304-32.00-32.00-32.00L 96.00,32.00 c-17.664,0.00-32.00,14.304-32.00,32.00L 64.00,256.00 c0.00,17.696, 14.336,32.00, 32.00,32.00l 320.00,0.00 c 17.696,0.00, 32.00-14.304, 32.00-32.00L 448.00,64.00 z"  />
<glyph unicode="&#xe021;" d="M 256.16,351.84l-64.00,0.00 l0.00-64.00 l-64.00,0.00 l0.00-64.00 l 64.00,0.00 l0.00-64.00 l 64.00,0.00 l0.00,64.00 l 64.00,0.00 l0.00,64.00 l-64.00,0.00 L 256.16,351.84 z M 500.32,35.424l-92.448,92.448
			c 25.344,36.288, 40.32,80.352, 40.32,127.968c0.00,123.712-100.32,224.00-224.00,224.00s-224.00-100.288-224.00-224.00c0.00-123.712, 100.288-224.00, 224.00-224.00c 47.616,0.00, 91.712,14.976, 128.00,40.32
			l 92.448-92.448c 15.36-15.36, 40.32-15.36, 55.68,0.00S 515.68,20.00, 500.32,35.424z M 224.16,95.808c-88.352,0.00-160.00,71.616-160.00,160.00c0.00,88.384, 71.648,160.00, 160.00,160.00
			c 88.384,0.00, 160.00-71.616, 160.00-160.00C 384.192,167.424, 312.576,95.808, 224.16,95.808z"  />
<glyph unicode="&#xe022;" d="M 500.32,35.424l-92.448,92.448c 25.344,36.288, 40.32,80.352, 40.32,127.968
			c0.00,123.712-100.32,224.00-224.00,224.00s-224.00-100.288-224.00-224.00c0.00-123.712, 100.288-224.00, 224.00-224.00c 47.616,0.00, 91.712,14.976, 128.00,40.32l 92.448-92.448c 15.36-15.36, 40.32-15.36, 55.68,0.00
			S 515.68,20.00, 500.32,35.424z M 224.16,95.808c-88.352,0.00-160.00,71.616-160.00,160.00c0.00,88.384, 71.648,160.00, 160.00,160.00c 88.384,0.00, 160.00-71.616, 160.00-160.00
			C 384.192,167.424, 312.576,95.808, 224.16,95.808z"  />
<glyph unicode="&#xe023;" d="M 255.584,480.00 L 256.416,480.00 C 256.256,479.968 256.128,479.936 256.00,479.936 C 255.872,479.936 255.744,479.968 255.584,480.00 Z M 493.568,261.312 C 518.24,236.64 518.24,196.576 493.568,171.872 L 481.696,160.00 L 448.00,160.00 L 448.00,32.00 C 448.00-3.328 419.328-32.00 384.00-32.00 L 128.00-32.00 C 92.672-32.00 64.00-3.328 64.00,32.00 L 64.00,160.00 L 30.304,160.00 L 18.432,171.872 C -6.24,196.576 -6.24,236.64 18.432,261.312 L 219.68,462.528 C 229.888,472.736 242.72,478.272 256.00,479.936 C 269.28,478.272 282.112,472.736 292.32,462.528 L 493.568,261.312 Z M 384.00,224.00 L 434.304,224.00 C 432.96,229.44 430.72,234.688 426.496,238.976 L 269.984,395.488 C 265.984,399.488 261.088,401.696 256.00,403.104 C 250.912,401.696 246.016,399.456 242.048,395.488 L 85.536,238.976 C 81.28,234.688 79.04,229.44 77.696,224.00 L 128.00,224.00 L 128.00,64.00 C 128.00,46.304 142.304,32.00 160.00,32.00 L 192.00,32.00 L 192.00,192.00 L 320.00,192.00 L 320.00,32.00 L 352.00,32.00 C 369.696,32.00 384.00,46.304 384.00,64.00 L 384.00,224.00 Z"  />
<glyph unicode="&#xe024;" d="M 159.936,16.00A48.00,48.00 540.00 1 0 255.936,16A48.00,48.00 540.00 1 0 159.936,16zM 415.936,192.00L 217.44,192.00 L 209.472,224.00l 208.128,0.00 c 11.136,0.00, 20.512,6.656, 25.76,16.128L 445.568,240.00l 66.496,188.288L 511.936,448.00c0.00,17.696-14.304,32.00-32.00,32.00l-448.00,0.00 
		c-17.696,0.00-32.00-14.304-32.00-32.00s 14.304-32.00, 32.00-32.00l 66.528,0.00 l 62.528-250.72C 160.672,163.488, 159.936,161.888, 159.936,160.00c0.00-17.696, 14.304-32.00, 32.00-32.00l 224.00,0.00 c 17.696,0.00, 32.00,14.304, 32.00,32.00
		S 433.632,192.00, 415.936,192.00z M 161.568,416.00l 283.04,0.00 L 399.36,288.00L 193.504,288.00 L 161.568,416.00zM 351.936,16.00A48.00,48.00 540.00 1 0 447.936,16A48.00,48.00 540.00 1 0 351.936,16z"  />
<glyph unicode="&#xe025;" d="M 379.84,318.816C 366.016,374.528, 316.00,416.00, 256.00,416.00C 208.128,416.00, 166.88,389.408, 144.928,350.464
	C 63.744,342.784,0.00,275.20,0.00,192.00c0.00-69.312, 44.352-127.776, 105.984-150.016L 144.00,32.00L 384.00,32.00 l0.00,1.632 c 71.904,8.032, 128.00,68.32, 128.00,142.368
	C 512.00,251.456, 453.76,312.672, 379.84,318.816z M 384.00,97.632L 384.00,96.00 L 160.00,96.00 c-53.024,0.00-96.00,42.976-96.00,96.00s 42.976,96.00, 96.00,96.00c 11.296,0.00, 21.952-2.304, 32.00-5.888L 192.00,288.00 
	c0.00,28.032, 13.152,43.392, 27.456,52.288c-0.032,0.00-0.096,0.032-0.128,0.064c 0.32,0.224, 0.704,0.32, 1.056,0.544
	c 3.392,2.016, 6.72,3.712, 10.08,5.056c 3.968,1.792, 8.064,3.072, 12.448,4.00C 250.464,351.648, 256.00,352.00, 256.00,352.00c 6.208,0.00, 12.128-1.152, 17.824-2.816
	c 1.152-0.352, 2.272-0.672, 3.424-1.088c 5.60-1.984, 10.848-4.544, 15.584-7.904c 0.096-0.064, 0.192-0.16, 0.32-0.256
	C 298.112,336.384, 302.464,332.032, 306.24,327.232c 0.16-0.256, 0.384-0.448, 0.576-0.672c 3.808-5.024, 6.88-10.592, 9.088-16.64
	C 318.40,303.072, 320.00,295.712, 320.00,288.00c0.00-31.008, 32.00-32.00, 32.00-32.00l 1.472-1.472C 358.176,255.392, 363.04,256.00, 368.00,256.00C 412.192,256.00, 448.00,220.192, 448.00,176.00
	C 448.00,137.312, 420.512,105.024, 384.00,97.632z"  />
<glyph unicode="&#xe026;" d="M 256.00,480.00C 114.624,480.00,0.00,365.376,0.00,224.00s 114.624-256.00, 256.00-256.00s 256.00,114.624, 256.00,256.00S 397.376,480.00, 256.00,480.00z M 256.00,32.00
			c-106.016,0.00-192.00,85.984-192.00,192.00s 85.984,192.00, 192.00,192.00s 192.00-85.984, 192.00-192.00S 362.016,32.00, 256.00,32.00z M 192.00,224.00l-32.00-64.00l 96.00,0.00 c 35.328,0.00, 64.00,28.672, 64.00,64.00L 320.00,320.00 L 256.00,288.00C 220.672,288.00, 192.00,259.328, 192.00,224.00z M 288.00,224.00
			c0.00-17.696-14.304-32.00-32.00-32.00S 224.00,206.304, 224.00,224.00s 14.304,32.00, 32.00,32.00S 288.00,241.696, 288.00,224.00z"  />
<glyph unicode="&#xe027;" d="M 512.00,448.00L 512.00,480.00 l-32.00,0.00 l0.00-1.44 l-94.816-94.784C 384.768,383.776, 384.448,384.00, 384.00,384.00L 160.00,384.00 L 160.00,448.00 c0.00,17.696-14.304,32.00-32.00,32.00S 96.00,465.696, 96.00,448.00l0.00-64.00 L 32.00,384.00 C 14.304,384.00,0.00,369.696,0.00,352.00
	s 14.304-32.00, 32.00-32.00l 64.00,0.00 l0.00-224.00 c0.00-17.696, 14.304-32.00, 32.00-32.00l 224.00,0.00 l0.00-64.00 c0.00-17.696, 14.304-32.00, 32.00-32.00s 32.00,14.304, 32.00,32.00l0.00,64.00 l 64.00,0.00 c 17.696,0.00, 32.00,14.304, 32.00,32.00s-14.304,32.00-32.00,32.00l-64.00,0.00 L 416.00,352.00 
	c0.00,0.416-0.224,0.768-0.256,1.216L 510.56,448.00L 512.00,448.00 z M 160.00,160.00L 160.00,320.00 l 160.00,0.00 l0.00-1.44 L 161.44,160.00L 160.00,160.00 z M 352.00,128.00L 192.00,128.00 l0.00,1.44 L 350.56,288.00L 352.00,288.00 L 352.00,128.00 z"  />
<glyph unicode="&#xe028;" d="M 500.32,35.424l-92.448,92.448c 25.344,36.288, 40.32,80.352, 40.32,127.968
			c0.00,123.712-100.32,224.00-224.00,224.00s-224.00-100.288-224.00-224.00c0.00-123.712, 100.288-224.00, 224.00-224.00c 47.616,0.00, 91.712,14.976, 128.00,40.32l 92.448-92.448c 15.36-15.36, 40.32-15.36, 55.68,0.00
			S 515.68,20.00, 500.32,35.424z M 224.16,95.808c-88.352,0.00-160.00,71.616-160.00,160.00c0.00,88.384, 71.648,160.00, 160.00,160.00c 88.384,0.00, 160.00-71.616, 160.00-160.00
			C 384.192,167.424, 312.576,95.808, 224.16,95.808z M 128.16,223.84l 192.00,0.00 l0.00,64.00 l-192.00,0.00 L 128.16,223.84 z"  />
<glyph unicode="&#xe029;" d="M 256.00,288.00C 202.976,288.00, 160.00,245.024, 160.00,192.00s 42.976-96.00, 96.00-96.00s 96.00,42.976, 96.00,96.00S 309.024,288.00, 256.00,288.00z M 256.00,160.00
			c-17.696,0.00-32.00,14.304-32.00,32.00s 14.304,32.00, 32.00,32.00s 32.00-14.304, 32.00-32.00S 273.696,160.00, 256.00,160.00z M 448.00,416.00l-64.00,0.00 c0.00,35.328-28.672,64.00-64.00,64.00L 192.00,480.00 C 156.672,480.00, 128.00,451.328, 128.00,416.00L 64.00,416.00 
			C 28.672,416.00,0.00,387.328,0.00,352.00l0.00-320.00 c0.00-35.328, 28.672-64.00, 64.00-64.00l 384.00,0.00 c 35.328,0.00, 64.00,28.672, 64.00,64.00L 512.00,352.00 C 512.00,387.328, 483.328,416.00, 448.00,416.00z M 448.00,64.00c0.00-17.696-14.304-32.00-32.00-32.00L 96.00,32.00 
			c-17.696,0.00-32.00,14.304-32.00,32.00L 64.00,320.00 c0.00,17.696, 14.304,32.00, 32.00,32.00l 96.00,0.00 L 192.00,384.00 c0.00,17.696, 14.304,32.00, 32.00,32.00l 64.00,0.00 c 17.696,0.00, 32.00-14.304, 32.00-32.00l0.00-32.00 l 96.00,0.00 c 17.696,0.00, 32.00-14.304, 32.00-32.00L 448.00,64.00 z"  />
<glyph unicode="&#xe02a;" d="M 128.096,479.968 C 255.968,483.20 256.00,386.88 256.00,386.88 L 256.00,319.552 C 251.68,311.552 231.008,398.464 165.056,414.496 C 46.944,429.76 62.816,320.128 67.20,272.64 C 66.688,269.632 74.912,145.344 256.00,49.376 L 256.00,47.968 L 256.00-32.032 C 0.224,107.616 0.224,293.792 0.224,293.792 C 0.224,340.32 0.224,456.672 128.096,479.968 ZM 384.128,479.968 C 512.00,456.672 512.00,340.32 512.00,293.792 C 512.00,293.792 512.00,107.584 256.256-32.032 L 256.256,47.968 L 256.256,49.376 C 437.344,145.344 445.568,269.664 445.056,272.64 C 449.408,320.16 465.28,429.792 347.168,414.496 C 281.216,398.464 260.544,311.552 256.224,319.552 L 256.224,386.88 C 256.224,386.88 256.256,483.20 384.128,479.968 Z"  />
<glyph unicode="&#xe02b;" d="M 223.872,454.272l-96.00-98.688L 127.872,352.00 l-64.00,0.00 c-35.328,0.00-64.00-28.672-64.00-64.00l0.00-128.00 c0.00-35.36, 28.672-64.00, 64.00-64.00l 64.00,0.00 l0.00-3.616 
			l 96.00-98.688c0.00,0.00, 64.00-76.064, 64.00,32.864L 287.872,421.376 C 287.872,530.368, 223.872,454.272, 223.872,454.272z M 223.872,128.00c0.00-52.00-32.00,0.00-32.00,0.00l-32.00,32.00l-64.00,0.00 
			c-17.696,0.00-32.00,14.304-32.00,32.00L 63.872,256.00 c0.00,17.664, 14.304,32.00, 32.00,32.00l 64.00,0.00 l 32.00,32.00C 191.936,322.112, 223.68,380.352, 223.392,331.04C 223.296,310.208, 223.424,280.352, 223.584,257.344
			C 223.616,256.864, 223.872,256.48, 223.872,256.00L 223.872,128.00 z M 408.384,329.44L 502.40,423.488c 12.96,12.992, 12.96,34.016,0.00,47.008c-12.992,12.992-34.016,12.992-47.04,0.00
			l-94.016-94.048c-12.96-12.992-12.96-34.016,0.00-47.008C 374.336,316.48, 395.36,316.48, 408.384,329.44z M 408.384,118.496
			c-12.992,12.992-34.016,12.992-47.04,0.00c-12.96-12.928-12.96-33.984,0.00-47.008l 94.016-94.048c 12.992-12.928, 34.016-12.928, 47.04,0.00
			c 12.96,12.992, 12.96,34.048,0.00,47.072L 408.384,118.496z M 383.872,256.00c-17.696,0.00-32.00-14.336-32.00-32.00s 14.304-32.00, 32.00-32.00l 96.00,0.00 c 17.696,0.00, 32.00,14.304, 32.00,32.00s-14.304,32.00-32.00,32.00
			L 383.872,256.00 z"  />
<glyph unicode="&#xf00d;" d="M 370.857,102.286q0.00-11.429 -8.00-19.429l-38.857-38.857q-8.00-8.00 -19.429-8.00t-19.429,8.00l-84.00,84.00l-84.00-84.00q-8.00-8.00 -19.429-8.00t-19.429,8.00l-38.857,38.857q-8.00,8.00 -8.00,19.429t 8.00,19.429l 84.00,84.00l-84.00,84.00q-8.00,8.00 -8.00,19.429t 8.00,19.429l 38.857,38.857q 8.00,8.00 19.429,8.00t 19.429-8.00l 84.00-84.00l 84.00,84.00q 8.00,8.00 19.429,8.00t 19.429-8.00l 38.857-38.857q 8.00-8.00 8.00-19.429 t-8.00-19.429l-84.00-84.00l 84.00-84.00q 8.00-8.00 8.00-19.429z" horiz-adv-x="402.2857142857143"  />
<glyph unicode="&#xf0d7;" d="M 292.571,278.857q0.00-7.429 -5.429-12.857l-128.00-128.00q-5.429-5.429 -12.857-5.429t-12.857,5.429l-128.00,128.00q-5.429,5.429 -5.429,12.857t 5.429,12.857t 12.857,5.429l 256.00,0.00 q 7.429,0.00 12.857-5.429t 5.429-12.857z" horiz-adv-x="292.57142857142856"  />
<glyph unicode="&#xf0d8;" d="M 292.571,132.571q0.00-7.429 -5.429-12.857t-12.857-5.429l-256.00,0.00 q-7.429,0.00 -12.857,5.429t-5.429,12.857t 5.429,12.857l 128.00,128.00q 5.429,5.429 12.857,5.429t 12.857-5.429l 128.00-128.00q 5.429-5.429 5.429-12.857z" horiz-adv-x="292.57142857142856"  />
<glyph unicode="&#xf0d9;" d="M 182.857,352.00l0.00-256.00 q0.00-7.429 -5.429-12.857t-12.857-5.429t-12.857,5.429l-128.00,128.00q-5.429,5.429 -5.429,12.857t 5.429,12.857l 128.00,128.00q 5.429,5.429 12.857,5.429t 12.857-5.429t 5.429-12.857z" horiz-adv-x="182.85714285714283"  />
<glyph unicode="&#xf0da;" d="M 164.571,224.00q0.00-7.429 -5.429-12.857l-128.00-128.00q-5.429-5.429 -12.857-5.429t-12.857,5.429t-5.429,12.857l0.00,256.00 q0.00,7.429 5.429,12.857t 12.857,5.429t 12.857-5.429l 128.00-128.00q 5.429-5.429 5.429-12.857z" horiz-adv-x="182.85714285714283"  />
<glyph unicode="&#xf0dc;" d="M 292.571,169.143q0.00-7.429 -5.429-12.857l-128.00-128.00q-5.429-5.429 -12.857-5.429t-12.857,5.429l-128.00,128.00q-5.429,5.429 -5.429,12.857t 5.429,12.857t 12.857,5.429l 256.00,0.00 q 7.429,0.00 12.857-5.429t 5.429-12.857zM 292.571,278.857q0.00-7.429 -5.429-12.857t-12.857-5.429l-256.00,0.00 q-7.429,0.00 -12.857,5.429t-5.429,12.857t 5.429,12.857l 128.00,128.00q 5.429,5.429 12.857,5.429t 12.857-5.429l 128.00-128.00q 5.429-5.429 5.429-12.857z" horiz-adv-x="292.57142857142856"  />
<glyph unicode="&#xf0dd;" d="M 292.571,169.143q0.00-7.429 -5.429-12.857l-128.00-128.00q-5.429-5.429 -12.857-5.429t-12.857,5.429l-128.00,128.00q-5.429,5.429 -5.429,12.857t 5.429,12.857t 12.857,5.429l 256.00,0.00 q 7.429,0.00 12.857-5.429t 5.429-12.857z" horiz-adv-x="292.57142857142856"  />
<glyph unicode="&#xf0de;" d="M 292.571,278.857q0.00-7.429 -5.429-12.857t-12.857-5.429l-256.00,0.00 q-7.429,0.00 -12.857,5.429t-5.429,12.857t 5.429,12.857l 128.00,128.00q 5.429,5.429 12.857,5.429t 12.857-5.429l 128.00-128.00q 5.429-5.429 5.429-12.857z" horiz-adv-x="292.57142857142856"  />
<glyph unicode="&#xf100;" d="M 179.143,86.857q0.00-3.714 -2.857-6.571l-14.286-14.286q-2.857-2.857 -6.571-2.857t-6.571,2.857l-133.143,133.143q-2.857,2.857 -2.857,6.571t 2.857,6.571l 133.143,133.143q 2.857,2.857 6.571,2.857t 6.571-2.857l 14.286-14.286q 2.857-2.857 2.857-6.571t-2.857-6.571l-112.286-112.286l 112.286-112.286q 2.857-2.857 2.857-6.571zM 288.857,86.857q0.00-3.714 -2.857-6.571l-14.286-14.286q-2.857-2.857 -6.571-2.857t-6.571,2.857l-133.143,133.143q-2.857,2.857 -2.857,6.571 t 2.857,6.571l 133.143,133.143q 2.857,2.857 6.571,2.857t 6.571-2.857l 14.286-14.286q 2.857-2.857 2.857-6.571t-2.857-6.571l-112.286-112.286l 112.286-112.286q 2.857-2.857 2.857-6.571z" horiz-adv-x="292.57142857142856"  />
<glyph unicode="&#xf101;" d="M 170.00,205.714q0.00-3.714 -2.857-6.571l-133.143-133.143q-2.857-2.857 -6.571-2.857t-6.571,2.857l-14.286,14.286q-2.857,2.857 -2.857,6.571t 2.857,6.571l 112.286,112.286l-112.286,112.286q-2.857,2.857 -2.857,6.571t 2.857,6.571l 14.286,14.286q 2.857,2.857 6.571,2.857t 6.571-2.857l 133.143-133.143q 2.857-2.857 2.857-6.571zM 279.714,205.714q0.00-3.714 -2.857-6.571l-133.143-133.143q-2.857-2.857 -6.571-2.857t-6.571,2.857l-14.286,14.286q-2.857,2.857 -2.857,6.571t 2.857,6.571 l 112.286,112.286l-112.286,112.286q-2.857,2.857 -2.857,6.571t 2.857,6.571l 14.286,14.286q 2.857,2.857 6.571,2.857t 6.571-2.857l 133.143-133.143q 2.857-2.857 2.857-6.571z" horiz-adv-x="292.57142857142856"  />
<glyph unicode="&#xf102;" d="M 307.143,105.143q0.00-3.714 -2.857-6.571l-14.286-14.286q-2.857-2.857 -6.571-2.857t-6.571,2.857l-112.286,112.286l-112.286-112.286q-2.857-2.857 -6.571-2.857t-6.571,2.857l-14.286,14.286q-2.857,2.857 -2.857,6.571t 2.857,6.571l 133.143,133.143q 2.857,2.857 6.571,2.857t 6.571-2.857l 133.143-133.143q 2.857-2.857 2.857-6.571zM 307.143,214.857q0.00-3.714 -2.857-6.571l-14.286-14.286q-2.857-2.857 -6.571-2.857t-6.571,2.857l-112.286,112.286l-112.286-112.286 q-2.857-2.857 -6.571-2.857t-6.571,2.857l-14.286,14.286q-2.857,2.857 -2.857,6.571t 2.857,6.571l 133.143,133.143q 2.857,2.857 6.571,2.857t 6.571-2.857l 133.143-133.143q 2.857-2.857 2.857-6.571z" horiz-adv-x="329.1428571428571"  />
<glyph unicode="&#xf103;" d="M 307.143,233.143q0.00-3.714 -2.857-6.571l-133.143-133.143q-2.857-2.857 -6.571-2.857t-6.571,2.857l-133.143,133.143q-2.857,2.857 -2.857,6.571t 2.857,6.571l 14.286,14.286q 2.857,2.857 6.571,2.857t 6.571-2.857l 112.286-112.286l 112.286,112.286q 2.857,2.857 6.571,2.857t 6.571-2.857l 14.286-14.286q 2.857-2.857 2.857-6.571zM 307.143,342.857q0.00-3.714 -2.857-6.571l-133.143-133.143q-2.857-2.857 -6.571-2.857t-6.571,2.857l-133.143,133.143q-2.857,2.857 -2.857,6.571 t 2.857,6.571l 14.286,14.286q 2.857,2.857 6.571,2.857t 6.571-2.857l 112.286-112.286l 112.286,112.286q 2.857,2.857 6.571,2.857t 6.571-2.857l 14.286-14.286q 2.857-2.857 2.857-6.571z" horiz-adv-x="329.1428571428571"  />
<glyph unicode="&#xf104;" d="M 179.143,324.571q0.00-3.714 -2.857-6.571l-112.286-112.286l 112.286-112.286q 2.857-2.857 2.857-6.571t-2.857-6.571l-14.286-14.286q-2.857-2.857 -6.571-2.857t-6.571,2.857l-133.143,133.143q-2.857,2.857 -2.857,6.571t 2.857,6.571l 133.143,133.143q 2.857,2.857 6.571,2.857t 6.571-2.857l 14.286-14.286q 2.857-2.857 2.857-6.571z" horiz-adv-x="182.85714285714283"  />
<glyph unicode="&#xf105;" d="M 170.00,205.714q0.00-3.714 -2.857-6.571l-133.143-133.143q-2.857-2.857 -6.571-2.857t-6.571,2.857l-14.286,14.286q-2.857,2.857 -2.857,6.571t 2.857,6.571l 112.286,112.286l-112.286,112.286q-2.857,2.857 -2.857,6.571t 2.857,6.571l 14.286,14.286q 2.857,2.857 6.571,2.857t 6.571-2.857l 133.143-133.143q 2.857-2.857 2.857-6.571z" horiz-adv-x="182.85714285714283"  />
<glyph unicode="&#xf106;" d="M 307.143,141.714q0.00-3.714 -2.857-6.571l-14.286-14.286q-2.857-2.857 -6.571-2.857t-6.571,2.857l-112.286,112.286l-112.286-112.286q-2.857-2.857 -6.571-2.857t-6.571,2.857l-14.286,14.286q-2.857,2.857 -2.857,6.571t 2.857,6.571l 133.143,133.143q 2.857,2.857 6.571,2.857t 6.571-2.857l 133.143-133.143q 2.857-2.857 2.857-6.571z" horiz-adv-x="329.1428571428571"  />
<glyph unicode="&#xf107;" d="M 307.143,269.714q0.00-3.714 -2.857-6.571l-133.143-133.143q-2.857-2.857 -6.571-2.857t-6.571,2.857l-133.143,133.143q-2.857,2.857 -2.857,6.571t 2.857,6.571l 14.286,14.286q 2.857,2.857 6.571,2.857t 6.571-2.857l 112.286-112.286l 112.286,112.286q 2.857,2.857 6.571,2.857t 6.571-2.857l 14.286-14.286q 2.857-2.857 2.857-6.571z" horiz-adv-x="329.1428571428571"  />
<glyph unicode="&#xd7;" d="M 350.50,224.00l 151.50-152.00q 10.00-10.00 10.00-23.75t-10.00-23.25l-47.00-47.00q-9.50-10.00 -23.50-10.00t-23.50,10.00l-152.00,151.50l-152.00-151.50q-9.50-10.00 -23.50-10.00t-23.50,10.00l-47.00,47.00q-10.00,9.50 -10.00,23.25t 10.00,23.75l 151.50,152.00l-151.50,151.50q-10.00,10.00 -10.00,23.75t 10.00,23.75l 47.00,47.00q 9.50,9.50 23.50,9.50t 23.50-9.50l 152.00-152.00l 152.00,152.00q 9.50,9.50 23.50,9.50t 23.50-9.50
l 47.00-47.00q 10.00-10.00 10.00-23.75t-10.00-23.75z"  />
<glyph unicode="&#xf7;" d="M 480.00,160.00l-448.00,0.00 q-13.50,0.00 -22.75,9.50t-9.25,22.50l0.00,64.00 q0.00,13.50 9.50,22.75t 22.50,9.25l 448.00,0.00 q 13.50,0.00 22.75-9.25t 9.25-22.75l0.00-64.00 q0.00-13.00 -9.25-22.50t-22.75-9.50zM 288.00,352.00l-64.00,0.00 q-13.50,0.00 -22.75,9.50t-9.25,22.50l0.00,64.00 q0.00,13.50 9.50,22.75t 22.50,9.25l 64.00,0.00 q 13.50,0.00 22.75-9.25t 9.25-22.75l0.00-64.00 q0.00-13.00 -9.25-22.50t-22.75-9.50z
M 224.00,96.00l 64.00,0.00 q 13.50,0.00 22.75-9.25t 9.25-22.75l0.00-64.00 q0.00-13.50 -9.50-22.75t-22.50-9.25l-64.00,0.00 q-13.50,0.00 -22.75,9.50t-9.25,22.50l0.00,64.00 q0.00,13.50 9.50,22.75t 22.50,9.25z"  />
<glyph unicode="&#xf40b;" d="M 210.75,113.25q-18.75,18.75 -18.75,45.25t 19.00,45.50l 272.00,181.00l-181.50-272.00q-18.50-18.50 -45.25-18.50t-45.50,18.75zM 256.00,383.50q-45.50,0.00 -87.25-18.00t-71.75-48.00t-47.75-71.50t-17.75-87.00q0.00-53.00 24.00-101.00l-28.00-14.00q-27.50,54.50 -27.50,114.50q0.00,52.50 20.25,99.75t 54.50,81.50t 81.75,54.50t 99.50,20.25q 80.50,0.00 146.50-46.00l-28.50-19.00
q-54.50,34.00 -118.00,34.00zM 466.50,304.50q 45.50-66.00 45.50-146.00q0.00-60.00 -27.50-114.50l-28.00,14.50q 24.00,47.50 24.00,100.50q0.00,62.50 -33.00,117.00z"  />
<glyph unicode="&#xf339;" d="M 480.00,192.00l-43.00,0.00 q 11.00,31.50 11.00,64.00l 32.00,0.00 q 13.00,0.00 22.50-9.50t 9.50-22.75t-9.50-22.50t-22.50-9.25zM 464.00,308.50l-20.50-12.00q-6.50,31.50 -24.00,59.50l 13.00,7.50q 11.50,7.00 24.00,3.50t 19.25-15.00t 3.25-24.25t-15.00-19.25zM 391.00,392.50q-22.50,22.50 -52.50,36.50l 2.00,3.00q 6.50,11.50 19.25,15.00t 24.25-3.25t 15.00-19.25t-3.50-24.00zM 395.50,47.50q 7.00-11.50 3.50-24.00t-15.00-19.25
t-24.25-3.25t-19.25,15.00l-32.50,55.50q 31.50,8.50 58.00,27.00zM 255.75-32.00q-13.25,0.00 -22.50,9.25t-9.25,22.75l0.00,68.00 q 16.00-4.00 32.00-4.00q 15.00,0.00 32.00,3.00l0.00-67.00 q0.00-13.50 -9.50-22.75t-22.75-9.25zM 256.00,288.00q-16.50,0.00 -26.00,13.50q-45.50-7.00 -73.75-35.75t-28.25-73.75l-96.00,0.00 q-13.00,0.00 -22.50,9.25t-9.50,22.50t 9.50,22.75t 22.50,9.50l 105.50,0.00 l-89.50,52.50
q-11.50,6.50 -15.00,19.25t 3.25,24.25t 19.25,15.00t 24.00-3.50l 88.00-51.00l-51.00,88.00q-7.00,11.50 -3.50,24.00t 15.00,19.25t 24.25,3.25t 19.25-15.00l 52.50-89.50l0.00,105.50 q0.00,13.00 9.25,22.50t 22.75,9.50t 22.75-9.50t 9.25-22.50l0.00-128.00 q0.00-13.50 -9.50-22.75t-22.50-9.25zM 48.00,139.50l 80.50,47.00q 1.00-34.00 19.00-62.50l-68.00-39.50q-11.50-7.00 -24.00-3.50t-19.25,15.00t-3.25,24.25
t 15.00,19.25zM 155.00,114.00q 20.50-27.00 50.50-39.50l-34.00-58.50q-6.50-11.50 -19.25-15.00t-24.25,3.25t-15.00,19.25t 3.50,24.00zM 424.00,163.00l 40.00-23.50q 11.50-6.50 15.00-19.25t-3.25-24.25t-19.25-15.00t-24.00,3.50l-49.00,28.50q 25.00,22.00 40.50,50.00z"  />
<glyph unicode="&#xf336;" d="M 457.50,67.00l-92.50,92.50q 18.50,30.50 18.50,65.50q0.00,44.50 -27.25,79.00t-69.25,45.50l0.00,130.50 q 63.00-8.00 114.25-43.50t 81.00-91.25t 29.75-120.25q0.00-88.00 -54.50-158.00zM 131.00,257.50l-131.00,0.00 q 11.00,87.00 73.25,149.25t 149.25,73.25l0.00-130.50 q-33.50-9.00 -58.25-33.75t-33.25-58.25zM 130.50,193.00q 11.00-42.00 45.50-69.25t 79.00-27.25q 35.00,0.00 65.50,18.50
l 92.50-92.50q-70.00-54.50 -158.00-54.50q-64.50,0.00 -120.25,29.75t-91.25,81.00t-43.50,114.25l 130.50,0.00 z"  />
<glyph unicode="&#xf332;" d="M 448.00,96.00l-256.00,0.00 q-26.50,0.00 -45.25,18.75t-18.75,45.25l0.00,256.00 q0.00,26.50 18.75,45.25t 45.25,18.75l 256.00,0.00 q 26.50,0.00 45.25-18.75t 18.75-45.25l0.00-256.00 q0.00-26.50 -18.75-45.25t-45.25-18.75zM 448.00,384.00q0.00,13.50 -9.25,22.75t-22.75,9.25l-192.00,0.00 q-13.50,0.00 -22.75-9.25t-9.25-22.50t 9.25-22.75t 22.75-9.50l 116.00,0.00 l-139.50-139.50
q-9.00-9.00 -9.00-21.75t 9.00-21.75t 21.75-9.00t 21.75,9.00l 140.00,140.00l0.00-117.00 q0.00-13.50 9.50-22.75t 22.75-9.25t 22.50,9.25t 9.25,22.75l0.00,192.00 zM 416.00-0.25q0.00-13.25 -9.25-22.50t-22.75-9.25l-320.00,0.00 q-26.50,0.00 -45.25,18.75t-18.75,45.25l0.00,320.00 q0.00,13.50 9.25,22.75t 22.50,9.25t 22.75-9.25t 9.50-22.75l0.00-288.00 q0.00-13.50 9.25-22.75
t 22.75-9.25l 288.00,0.00 q 13.00,0.00 22.50-9.50t 9.50-22.75z"  />
<glyph unicode="&#xf327;" d="M 379.00,313.50q 6.00,6.00 15.00,6.50t 15.50-3.50t 6.50-10.00l0.00-165.00 q0.00-6.00 -6.50-10.00t-15.50-3.25t-15.00,6.75l-82.00,66.50q-9.50,9.50 -9.50,22.75t 9.50,22.75zM 448.00-32.00l-96.00,0.00 q-26.50,0.00 -45.25,18.75t-18.75,45.25l0.00,64.00 q0.00,13.00 9.50,22.50t 22.75,9.50t 22.50-9.50t 9.25-22.50l0.00-48.00 q0.00-6.50 4.75-11.25t 11.25-4.75l 64.00,0.00 q 6.50,0.00 11.25,4.75t 4.75,11.25l0.00,352.00 
q0.00,6.50 -4.75,11.25t-11.25,4.75l-64.00,0.00 q-6.50,0.00 -11.25-4.75t-4.75-11.25l0.00-48.00 q0.00-13.50 -9.25-22.75t-22.50-9.25t-22.75,9.25t-9.50,22.75l0.00,64.00 q0.00,26.50 18.75,45.25t 45.25,18.75l 96.00,0.00 q 26.50,0.00 45.25-18.75t 18.75-45.25l0.00-384.00 q0.00-26.50 -18.75-45.25t-45.25-18.75zM 133.00,135.00q-6.00-6.00 -15.00-6.75t-15.50,3.25t-6.50,10.00l0.00,165.00 
q0.00,6.00 6.50,10.00t 15.50,3.50t 15.00-6.50l 82.00-66.50q 9.50-9.50 9.50-22.75t-9.50-22.75zM 192.25,320.00q-13.25,0.00 -22.75,9.25t-9.50,22.75l0.00,48.00 q0.00,6.50 -4.75,11.25t-11.25,4.75l-64.00,0.00 q-6.50,0.00 -11.25-4.75t-4.75-11.25l0.00-352.00 q0.00-6.50 4.75-11.25t 11.25-4.75l 64.00,0.00 q 6.50,0.00 11.25,4.75t 4.75,11.25l0.00,48.00 q0.00,13.00 9.50,22.50t 22.75,9.50t 22.50-9.50t 9.25-22.50
l0.00-64.00 q0.00-26.50 -18.75-45.25t-45.25-18.75l-96.00,0.00 q-26.50,0.00 -45.25,18.75t-18.75,45.25l0.00,384.00 q0.00,26.50 18.75,45.25t 45.25,18.75l 96.00,0.00 q 26.50,0.00 45.25-18.75t 18.75-45.25l0.00-64.00 q0.00-13.50 -9.25-22.75t-22.50-9.25z"  />
<glyph unicode="&#xf326;" d="M 502.50,69.50q 9.50-9.50 9.50-23.00t-9.50-23.00l-45.50-46.00q-9.50-9.50 -22.75-9.50t-22.75,9.50l-57.00,57.00l-66.50-66.50q-13.50,0.00 -22.75,9.50t-9.25,22.50l0.00,192.50 q0.00,13.00 9.25,22.50t 22.75,9.50l 192.00,0.00 q 13.00,0.00 22.50-9.50t 9.50-22.50l-66.50-66.50zM 224.00,224.50l-191.50,0.00 q-13.50,0.00 -22.75,9.25t-9.25,22.75l 66.00,66.00l-57.00,56.50q-9.50,9.50 -9.50,23.00t 9.50,23.00
l 45.50,46.00q 9.50,9.50 23.00,9.50t 23.00-9.50l 57.00-57.00l 66.00,66.00q 13.50,0.00 22.75-9.25t 9.25-22.75l0.00-191.50 q0.00-13.50 -9.50-22.75t-22.50-9.25z"  />
<glyph unicode="&#xf325;" d="M 480.00-32.00l-191.50,0.00 q-13.50,0.00 -22.75,9.25t-9.25,22.75l 67.50,67.50l-74.50,72.50q-9.00,9.50 -9.00,22.75t 9.00,22.75l 46.00,45.50q 9.00,9.00 22.50,9.00t 23.00-9.00l 73.50-72.50l 65.50,65.00q 13.50,0.00 22.75-9.25t 9.25-22.75l0.00-191.50 q0.00-13.50 -9.25-22.75t-22.75-9.25zM 217.00,217.00q-9.50-9.50 -22.75-9.50t-22.75,9.50l-74.00,72.50l-65.50-65.50
q-13.00,0.00 -22.50,9.50t-9.50,22.50l0.00,192.00 q0.00,13.50 9.50,22.75t 22.50,9.25l 192.00,0.00 q 13.50,0.00 22.75-9.25t 9.25-22.75l-67.50-67.50l 74.50-73.00q 9.50-9.00 9.50-22.50t-9.50-22.50z"  />
<glyph unicode="&#xf324;" d="M 503.00,202.50l-81.50-100.00q-5.50-6.00 -14.75-6.25t-16.00,3.75t-6.75,9.50l0.00,50.50 l-64.00,0.00 q-13.00,0.00 -22.50,9.25t-9.50,22.75l0.00,64.00 q0.00,13.50 9.50,22.75t 22.50,9.25l 64.00,0.00 l0.00,50.00 q0.00,6.00 6.75,10.00t 16.00,3.75t 14.75-6.25l 81.50-99.50q 9.00-9.00 9.00-21.75t-9.00-21.75zM 320.25,352.00q-13.25,0.00 -22.75,9.50t-9.50,22.75t-9.25,22.50t-22.75,9.25l-160.00,0.00 
q-13.00,0.00 -22.50-9.25t-9.50-22.75l0.00-320.00 q0.00-13.00 9.50-22.50t 22.50-9.50l 160.00,0.00 q 13.50,0.00 22.75,9.50t 9.25,22.75t 9.50,22.50t 22.75,9.25t 22.50-9.25t 9.25-22.75l0.00-32.00 q0.00-26.50 -18.75-45.25t-45.25-18.75l-224.00,0.00 q-26.50,0.00 -45.25,18.75t-18.75,45.25l0.00,384.00 q0.00,26.50 18.75,45.25t 45.25,18.75l 224.00,0.00 q 26.50,0.00 45.25-18.75t 18.75-45.25l0.00-32.00 
q0.00-13.00 -9.25-22.50t-22.50-9.50z"  />
<glyph unicode="&#xf323;" d="M 448.00-32.00l-224.00,0.00 q-26.50,0.00 -45.25,18.75t-18.75,45.25l0.00,32.00 q0.00,13.50 9.50,22.75t 22.75,9.25t 22.50-9.25t 9.25-22.50t 9.50-22.75t 22.50-9.50l 160.00,0.00 q 13.50,0.00 22.75,9.50t 9.25,22.50l0.00,320.00 q0.00,13.50 -9.25,22.75t-22.75,9.25l-160.00,0.00 q-13.00,0.00 -22.50-9.25t-9.50-22.50t-9.25-22.75t-22.50-9.50t-22.75,9.50t-9.50,22.50l0.00,32.00 q0.00,26.50 18.75,45.25t 45.25,18.75
l 224.00,0.00 q 26.50,0.00 45.25-18.75t 18.75-45.25l0.00-384.00 q0.00-26.50 -18.75-45.25t-45.25-18.75zM 215.00,202.50l-81.50-100.00q-6.00-6.00 -15.00-6.25t-16.00,3.75t-7.00,9.50l0.00,50.50 l-63.50,0.00 q-13.50,0.00 -22.75,9.25t-9.25,22.75l0.00,64.00 q0.00,13.50 9.25,22.75t 22.75,9.25l 63.50,0.00 l0.00,50.00 q0.00,6.00 7.00,10.00t 16.00,3.75t 15.00-6.25l 81.50-99.50q 8.50-9.00 8.50-21.75t-8.50-21.75
z"  />
<glyph unicode="&#xf322;" d="M 506.50,213.00l-99.00-82.00q-5.50-4.00 -14.50-2.50t-9.00,6.50l0.00,57.00 l-96.50,0.00 l0.00-96.00 l 57.00,0.00 q 5.00,0.00 6.75-9.00t-2.75-14.50l-82.00-99.00q-4.50-5.50 -10.75-5.50t-10.75,5.50l-82.00,99.00q-4.50,5.50 -2.75,14.50t 6.25,9.00l 57.00,0.00 l0.00,96.00 l-95.50,0.00 l0.00-57.00 q0.00-4.50 -9.00-6.25t-14.50,2.25l-99.00,82.50q-5.50,4.50 -5.50,10.75t 5.50,10.75l 99.00,82.00q 5.50,4.50 14.50,2.75t 9.00-6.25
l0.00-57.50 l 95.50,0.00 l0.00,96.50 l-56.50,0.00 q-5.00,0.00 -6.75,9.00t 2.75,14.50l 82.00,98.50q 4.50,6.00 10.75,6.00t 10.75-6.00l 82.00-98.50q 4.50-5.50 2.75-14.50t-6.25-9.00l-57.50,0.00 l0.00-96.50 l 96.50,0.00 l0.00,57.00 q0.00,5.00 9.00,6.75t 14.50-2.75l 99.00-82.00q 5.50-4.50 5.50-11.00t-5.50-11.00z"  />
<glyph unicode="&#xf31d;" d="M 278.50,185.00q-9.00-9.00 -22.50-9.00t-22.50,9.00l-224.00,226.00q-9.50,9.50 -9.50,23.00t 9.50,22.50l 13.00,14.00q 9.50,9.50 22.75,9.50t 22.75-9.50l 188.00-189.50l 188.00,189.50q 9.50,9.50 22.75,9.50t 22.75-9.50l 13.00-14.00q 9.50-9.00 9.50-22.50t-9.50-23.00zM 22.50,262.50q 9.50,9.50 22.75,9.50t 22.75-9.50l 188.00-189.50l 188.00,189.50q 9.50,9.50 22.75,9.50t 22.75-9.50l 13.00-13.50
q 9.50-9.50 9.50-22.75t-9.50-22.75l-224.00-226.00q-9.00-9.50 -22.50-9.50t-22.50,9.50l-224.00,226.00q-9.50,9.50 -9.50,22.75t 9.50,22.75z"  />
<glyph unicode="&#xf31c;" d="M 233.50,262.50q 9.00,9.50 22.50,9.50t 22.50-9.50l 224.00-225.50q 9.50-9.50 9.50-23.00t-9.50-23.00l-13.00-13.50q-9.50-9.50 -22.75-9.50t-22.75,9.50l-188.00,189.50l-188.00-189.50q-9.50-9.50 -22.75-9.50t-22.75,9.50l-13.00,13.50q-9.50,9.50 -9.50,23.00t 9.50,23.00zM 489.50,185.00q-9.50-9.50 -22.75-9.50t-22.75,9.50l-188.00,190.00l-188.00-190.00q-9.50-9.50 -22.75-9.50t-22.75,9.50
l-13.00,14.00q-9.50,9.50 -9.50,22.75t 9.50,22.75l 224.00,226.00q 9.00,9.50 22.50,9.50t 22.50-9.50l 224.00-226.00q 9.50-9.50 9.50-22.75t-9.50-22.75z"  />
<glyph unicode="&#xf31b;" d="M 294.50,246.50q 9.50-9.00 9.50-22.25t-9.50-22.75l-225.50-224.00q-9.50-9.50 -23.00-9.50t-23.00,9.50l-13.50,13.50q-9.50,9.00 -9.50,22.25t 9.50,22.75l 189.50,188.00l-189.50,188.00q-9.50,9.50 -9.50,22.75t 9.50,22.75l 13.50,13.00q 9.50,9.50 23.00,9.50t 23.00-9.50zM 217.50-9.00q-9.50,9.00 -9.50,22.25t 9.50,22.75l 189.50,188.00l-189.50,188.00q-9.50,9.50 -9.50,22.75t 9.50,22.75l 13.50,13.00
q 9.50,9.50 22.75,9.50t 22.75-9.50l 226.00-224.00q 9.50-9.00 9.50-22.25t-9.50-22.75l-226.00-224.00q-9.50-9.50 -22.75-9.50t-22.75,9.50z"  />
<glyph unicode="&#xf31a;" d="M 217.50,246.50q-9.50-9.00 -9.50-22.25t 9.50-22.75l 225.50-224.00q 9.50-9.50 23.00-9.50t 23.00,9.50l 13.50,13.50q 9.50,9.00 9.50,22.25t-9.50,22.75l-189.50,188.00l 189.50,188.00q 9.50,9.50 9.50,22.75t-9.50,22.75l-13.50,13.00q-9.50,9.50 -23.00,9.50t-23.00-9.50zM 294.50-9.00q 9.50,9.00 9.50,22.25t-9.50,22.75l-189.50,188.00l 189.50,188.00q 9.50,9.50 9.50,22.75t-9.50,22.75l-13.50,13.00
q-9.50,9.50 -22.75,9.50t-22.75-9.50l-226.00-224.00q-9.50-9.00 -9.50-22.25t 9.50-22.75l 226.00-224.00q 9.50-9.50 22.75-9.50t 22.75,9.50z"  />
<glyph unicode="&#xf2fe;" d="M 233.50-22.50l-224.00,225.50q-9.50,9.50 -9.50,23.00t 9.50,22.50l 45.00,46.00q 9.50,9.50 22.75,9.50t 22.75-9.50l 92.00-92.50l0.00,245.50 q0.00,13.00 9.25,22.50t 22.75,9.50l 63.50,0.00 q 13.50,0.00 22.75-9.50t 9.25-22.50l0.00-246.00 l 92.50,93.00q 9.50,9.50 22.75,9.50t 22.75-9.50l 45.00-46.00q 9.50-9.00 9.50-22.50t-9.50-23.00l-224.00-225.50q-9.00-9.50 -22.50-9.50t-22.50,9.50z"  />
<glyph unicode="&#xf2ff;" d="M 32.00,383.00l 64.00,0.00 q 13.00,0.00 22.50-9.25t 9.50-22.75l0.00-162.50 l 283.00,281.50q 9.50,9.50 23.00,9.50t 23.00-9.50l 45.50-45.00q 9.50-9.50 9.50-22.75t-9.50-22.75l-286.00-284.00l 167.50,0.00 q 13.00,0.00 22.50-9.25t 9.50-22.25l0.00-64.00 q0.00-13.50 -9.50-22.75t-22.50-9.25l-352.00,0.00 q-13.50,0.00 -22.75,9.25t-9.25,22.75l0.00,351.00 q0.00,13.50 9.25,22.75t 22.75,9.25z"  />
<glyph unicode="&#xf300;" d="M 480.00,383.00l-64.00,0.00 q-13.00,0.00 -22.50-9.25t-9.50-22.75l0.00-162.00 l-283.50,281.00q-9.00,9.50 -22.50,9.50t-23.00-9.50l-45.50-45.00q-9.50-9.50 -9.50-22.75t 9.50-22.75l 286.00-284.00l-167.50,0.00 q-13.00,0.00 -22.50-9.25t-9.50-22.25l0.00-64.00 q0.00-13.50 9.50-22.75t 22.50-9.25l 352.00,0.00 q 13.50,0.00 22.75,9.25t 9.25,22.75l0.00,351.50 q0.00,13.00 -9.25,22.25t-22.75,9.25z"  />
<glyph unicode="&#xf301;" d="M 278.50,470.00l 224.00-226.00q 9.50-9.50 9.50-22.75t-9.50-22.75l-45.00-45.50q-9.50-9.50 -22.75-9.50t-22.75,9.50l-92.00,92.50l0.00-245.50 q0.00-13.50 -9.25-22.75t-22.75-9.25l-63.50,0.00 q-13.50,0.00 -22.75,9.25t-9.25,22.75l0.00,246.00 l-92.50-93.00q-9.50-9.50 -22.75-9.50t-22.75,9.50l-45.00,45.50q-9.50,9.50 -9.50,22.75t 9.50,22.75l 224.00,226.00q 9.00,9.50 22.50,9.50
t 22.50-9.50z"  />
<glyph unicode="&#xf302;" d="M 502.50,22.50l-45.50-45.00q-9.50-9.50 -23.00-9.50t-23.00,9.50l-283.00,281.50l0.00-162.50 q0.00-13.50 -9.50-22.75t-22.50-9.25l-64.00,0.00 q-13.00,0.00 -22.50,9.25t-9.50,22.75l0.00,351.50 q0.00,13.50 9.25,22.75t 22.75,9.25l 352.00,0.00 q 13.00,0.00 22.50-9.25t 9.50-22.75l0.00-64.00 q0.00-13.00 -9.50-22.50t-22.50-9.50l-167.00,0.00 l 285.50-284.00q 9.50-9.50 9.50-22.75t-9.50-22.75z"  />
<glyph unicode="&#xf303;" d="M 480.00,64.50l-64.00,0.00 q-13.00,0.00 -22.50,9.25t-9.50,22.75l0.00,162.00 l-283.50-281.00q-9.00-9.50 -22.50-9.50t-23.00,9.50l-45.50,45.00q-9.50,9.50 -9.50,22.75t 9.50,22.75l 286.00,283.50l-167.50,0.00 q-13.00,0.00 -22.50,9.50t-9.50,22.50l0.00,64.00 q0.00,13.50 9.50,22.75t 22.50,9.25l 352.00,0.00 q 13.50,0.00 22.75-9.25t 9.25-22.75l0.00-351.00 q0.00-13.50 -9.50-22.75t-22.50-9.25z"  />
<glyph unicode="&#xf304;" d="M 502.50,201.50l-226.00-224.00q-9.50-9.50 -22.75-9.50t-22.75,9.50l-46.00,45.50q-9.50,9.00 -9.50,22.50t 9.50,22.50l 93.00,92.00l-246.00,0.00 q-13.50,0.00 -22.75,9.50t-9.25,22.50l0.00,64.00 q0.00,13.50 9.25,22.75t 22.75,9.25l 246.50,0.00 l-93.50,92.50q-9.50,9.50 -9.50,22.75t 9.50,22.75l 46.00,45.50q 9.50,9.00 22.75,9.00t 22.75-9.00l 226.00-224.50q 9.50-9.50 9.50-22.75t-9.50-22.75z"  />
<glyph unicode="&#xf305;" d="M 9.50,247.00l 226.00,224.50q 9.50,9.50 22.75,9.50t 22.75-9.50l 46.00-45.50q 9.50-9.50 9.50-22.75t-9.50-22.75l-93.00-92.00l 246.00,0.00 q 13.50,0.00 22.75-9.25t 9.25-22.75l0.00-64.00 q0.00-13.00 -9.25-22.50t-22.75-9.50l-246.50,0.00 l 93.50-92.50q 9.50-9.00 9.50-22.50t-9.50-22.50l-46.00-45.50q-9.50-9.50 -22.75-9.50t-22.75,9.50l-226.00,224.00q-9.50,9.50 -9.50,22.75t 9.50,22.75z
"  />
<glyph unicode="&#xf31e;" d="M 480.00-32.00l-64.00,0.00 q-13.50,0.00 -22.75,9.50t-9.25,22.50l0.00,32.00 l0.00,32.00 l0.00,128.00 q0.00,13.50 -9.50,22.75t-22.50,9.25l-96.00,0.00 l0.00-114.50 q0.00-5.50 -6.75-9.50t-16.00-3.75t-14.75,6.25l-209.50,164.00q-9.00,9.00 -9.00,21.75t 9.00,21.75l 209.50,163.50q 5.50,6.00 14.75,6.25t 16.00-3.75t 6.75-10.00l0.00-114.00 l 128.00,0.00 q 53.00,0.00 90.50-37.50t 37.50-90.50l0.00-160.00 l0.00-32.00 l0.00-32.00 q0.00-13.00 -9.50-22.50
t-22.50-9.50z"  />
<glyph unicode="&#xf31f;" d="M 503.00,266.50l-209.50-164.00q-5.50-6.00 -14.75-6.25t-16.00,3.75t-6.75,9.50l0.00,114.50 l-96.00,0.00 q-13.00,0.00 -22.50-9.25t-9.50-22.75l0.00-128.00 l0.00-32.00 l0.00-32.00 q0.00-13.00 -9.25-22.50t-22.75-9.50l-64.00,0.00 q-13.00,0.00 -22.50,9.50t-9.50,22.50l0.00,32.00 l0.00,32.00 l0.00,160.00 q0.00,53.00 37.50,90.50t 90.50,37.50l 128.00,0.00 l0.00,114.00 q0.00,6.00 6.75,10.00t 16.00,3.75t 14.75-6.25l 209.50-163.50q 9.00-9.00 9.00-21.75
t-9.00-21.75z"  />
<glyph unicode="&#xf310;" d="M 448.00-32.00l-384.00,0.00 q-26.50,0.00 -45.25,18.75t-18.75,45.25l0.00,384.00 q0.00,26.50 18.75,45.00t 45.25,18.50l 384.00,0.00 q 13.50,0.00 26.50-5.50l-58.50-58.00l-320.00,0.00 q-13.00,0.00 -22.50-9.50t-9.50-22.50l0.00-320.00 q0.00-13.50 9.25-22.75t 22.75-9.25l 320.00,0.00 q 13.00,0.00 22.50,9.25t 9.50,22.75l0.00,192.00 l 64.00,64.00l0.00-288.00 q0.00-26.50 -18.75-45.25t-45.25-18.75zM 279.00,137.50q-9.50-9.50 -23.50-9.00
q-14.50-0.50 -24.00,9.50l-94.00,93.50q-9.50,10.00 -9.50,23.75t 9.75,23.25t 23.25,9.50t 23.50-9.50l 72.00-72.00l 244.00,245.50q 11.50-16.50 11.50-36.00l0.00-34.00 q-4.00-15.50 -10.00-21.00z"  />
<glyph unicode="&#xf311;" d="M 448.00-32.00l-384.00,0.00 q-26.50,0.00 -45.25,18.75t-18.75,45.25l0.00,384.00 q0.00,26.50 18.75,45.00t 45.25,18.50l 384.00,0.00 q 26.50,0.00 45.25-18.50t 18.75-45.00l0.00-384.00 q0.00-26.50 -18.75-45.25t-45.25-18.75zM 448.00,384.00q0.00,13.00 -9.25,22.50t-22.75,9.50l-320.00,0.00 q-13.50,0.00 -22.75-9.50t-9.25-22.50l0.00-320.00 q0.00-13.50 9.25-22.75t 22.75-9.25l 320.00,0.00 q 13.50,0.00 22.75,9.25t 9.25,22.75
l0.00,320.00 zM 303.00,224.00l 71.00-71.00q 10.00-10.00 10.00-23.75t-9.75-23.25t-23.50-9.50t-23.75,9.50l-71.00,71.00l-71.00-71.50q-10.00-9.50 -23.50-9.50t-23.25,9.75t-9.75,23.50t 9.50,23.25l 71.50,71.50l-72.00,71.50q-9.50,10.00 -9.50,23.75t 9.50,23.25t 23.25,9.50t 23.75-9.50l 71.50-72.00l 72.00,72.00q 9.50,9.50 23.25,9.50t 23.50-9.75t 9.75-23.50t-10.00-23.25z"  />
<glyph unicode="&#xf312;" d="M 448.00-32.00l-384.00,0.00 q-26.50,0.00 -45.25,18.75t-18.75,45.25l0.00,384.00 q0.00,26.50 18.75,45.00t 45.25,18.50l 384.00,0.00 q 26.50,0.00 45.25-18.50t 18.75-45.00l0.00-384.00 q0.00-26.50 -18.75-45.25t-45.25-18.75zM 448.00,384.00q0.00,13.00 -9.25,22.50t-22.75,9.50l-320.00,0.00 q-13.50,0.00 -22.75-9.50t-9.25-22.50l0.00-320.00 q0.00-13.50 9.25-22.75t 22.75-9.25l 320.00,0.00 q 13.50,0.00 22.75,9.25t 9.25,22.75
l0.00,320.00 zM 255.75,128.00q-39.75,0.00 -67.75,28.00t-28.00,67.75t 28.00,68.00t 67.75,28.25t 68.00-28.25t 28.25-68.00t-28.25-67.75t-68.00-28.00z"  />
<glyph unicode="&#xf313;" d="M 256.00-32.00q-52.00,0.00 -99.50,20.25t-81.75,54.50t-54.50,81.75t-20.25,99.50t 20.25,99.50t 54.50,81.75t 81.75,54.75t 99.50,20.50t 99.50-20.50t 81.75-54.75t 54.50-81.75t 20.25-99.50t-20.25-99.50t-54.50-81.75t-81.75-54.50t-99.50-20.25zM 64.00,224.00q0.00-52.00 25.75-96.25t 70.00-70.00t 96.25-25.75q 61.00,0.00 111.00,35.50
l-267.50,267.50q-35.50-50.00 -35.50-111.00zM 256.00,416.00q-60.50,0.00 -110.50-35.00l 267.50-267.50q 35.00,50.00 35.00,110.50q0.00,52.50 -25.75,96.75t-70.00,69.75t-96.25,25.50z"  />
<glyph unicode="&#xf314;" d="M 256.00-32.00q-52.00,0.00 -99.50,20.25t-81.75,54.50t-54.50,81.75t-20.25,99.50t 20.25,99.25t 54.50,81.50t 81.75,54.50t 99.50,20.25t 99.50-20.25t 81.75-54.50t 54.50-81.50t 20.25-99.25t-20.25-99.50t-54.50-81.75t-81.75-54.50t-99.50-20.25zM 367.00,67.50l-111.00,111.00l-111.00-111.00q 50.00-35.50 111.00-35.50t 111.00,35.50zM 64.00,224.00
q0.00-61.00 35.00-110.50l 111.00,111.00l-110.50,110.50q-35.50-50.00 -35.50-111.00zM 145.50,380.50l 110.50-110.00l 110.50,110.00q-50.00,35.50 -110.50,35.50t-110.50-35.50zM 412.50,335.00l-110.50-110.50l 111.00-111.00q 35.00,49.50 35.00,110.50t-35.50,111.00z"  />
<glyph unicode="&#xf315;" d="M 256.00-32.00q-52.00,0.00 -99.50,20.25t-81.75,54.50t-54.50,81.75t-20.25,99.50t 20.25,99.50t 54.50,81.75t 81.75,54.50t 99.50,20.25t 99.50-20.25t 81.75-54.50t 54.50-81.75t 20.25-99.50t-20.25-99.50t-54.50-81.75t-81.75-54.50t-99.50-20.25zM 272.00,416.00q-20.00,0.00 -34.00-14.00t-14.00-33.75t 14.00-34.00t 34.00-14.25t 34.00,14.25t 14.00,34.00
t-14.00,33.75t-34.00,14.00zM 336.50,151.00q-30.00-31.50 -44.00-40.75t-27.50-9.25q-7.50,0.00 -12.75,6.75t-5.25,17.25q0.00,21.50 41.00,163.00l-77.50,14.50q-50.50-124.50 -50.50-195.00q0.00-32.50 15.50-54.00t 38.00-21.50q 40.50,0.00 123.00,81.00l0.00,38.00 z"  />
<glyph unicode="&#xf316;" d="M 512.00,32.00q0.00-13.00 -9.25-22.50t-22.75-9.50l-448.00,0.00 q-13.50,0.00 -22.75,9.50t-9.25,22.50q0.00,8.50 4.50,16.00l 219.50,368.00q 4.00,9.00 5.75,12.00t 6.00,9.25t 9.00,8.50t 11.25,2.25q 8.50,0.00 14.75-5.00t 9.50-10.75t 7.75-16.25l 219.50-368.00q 4.50-7.50 4.50-16.00zM 288.00,288.00q0.00,13.50 -9.25,22.75t-22.75,9.25t-22.75-9.25t-9.25-22.75l0.00-96.00 q0.00-13.00 9.50-22.50
t 22.50-9.50t 22.50,9.50t 9.50,22.50l0.00,96.00 zM 255.75,128.00q-13.25,0.00 -22.50-9.25t-9.25-22.50t 9.50-22.75t 22.50-9.50t 22.50,9.50t 9.50,22.75t-9.50,22.50t-22.75,9.25z"  />
<glyph unicode="&#xf317;" d="M 455.00,264.50q-13.00-7.50 -45.50-20.00t-64.00-20.50q 31.50-8.00 64.00-20.50t 45.50-20.00q 22.50-13.50 29.00-39.00t-6.25-48.50t-37.75-29.75t-47.00,6.25q-13.00,7.50 -39.00,29.75t-48.50,45.75q 9.00-32.00 15.00-66.25t 6.00-49.75q0.00-26.50 -18.75-45.25t-45.25-18.75t-45.25,18.75t-18.75,45.25q0.00,15.50 5.75,49.75t 14.75,66.25q-22.50-23.50 -48.50-45.75
t-38.50-29.75q-22.50-13.00 -47.50-6.25t-37.75,29.75t-6.00,48.50t 28.75,39.00q 13.00,7.50 45.50,20.00t 64.00,20.50q-31.50,8.00 -64.00,20.50t-45.50,20.00q-22.00,13.50 -28.75,39.00t 6.00,48.50t 37.75,29.75t 47.50-6.25q 12.50-7.50 38.50-29.75t 48.50-45.75q-9.00,32.00 -14.75,66.25t-5.75,49.75q0.00,26.50 18.75,45.25t 45.25,18.75t 45.25-18.75t 18.75-45.25q0.00-15.00 -6.00-49.50
t-15.00-66.50q 22.50,23.50 48.50,45.75t 39.00,29.75q 22.00,13.00 47.00,6.25t 37.75-29.75t 6.25-48.50t-29.00-39.00z"  />
<glyph unicode="&#xf30f;" d="M 496.00,352.00l-35.00,35.00l-58.50-58.00q-8.50-9.00 -21.00-9.00t-21.25,8.75t-8.75,21.25t 9.00,21.00l 58.00,58.50l-34.50,34.50q0.00,13.00 1.25,14.50t 14.75,1.50l 80.00,0.00 q 13.00,0.00 22.50-9.50t 9.50-22.50l0.00-80.00 q0.00-13.50 -1.50-14.75t-14.50-1.25zM 384.00,224.00l0.00-192.00 q0.00-26.50 -18.75-45.25t-45.25-18.75l-256.00,0.00 q-26.50,0.00 -45.25,18.75t-18.75,45.25l0.00,192.00 q0.00,26.50 18.75,45.25
t 45.25,18.75l 256.00,0.00 q 26.50,0.00 45.25-18.75t 18.75-45.25zM 320.00,192.00q0.00,13.00 -9.50,22.50t-22.50,9.50l-192.00,0.00 q-13.50,0.00 -22.75-9.50t-9.25-22.50l0.00-128.00 q0.00-13.50 9.25-22.75t 22.75-9.25l 192.00,0.00 q 13.00,0.00 22.50,9.25t 9.50,22.75l0.00,128.00 z"  />
<glyph unicode="&#xf30e;" d="M 448.00,160.00l-256.00,0.00 q-26.50,0.00 -45.25,18.75t-18.75,45.25l0.00,192.00 q0.00,26.50 18.75,45.25t 45.25,18.75l 256.00,0.00 q 26.50,0.00 45.25-18.75t 18.75-45.25l0.00-192.00 q0.00-26.50 -18.75-45.25t-45.25-18.75zM 448.00,384.00q0.00,13.50 -9.25,22.75t-22.75,9.25l-192.00,0.00 q-13.00,0.00 -22.50-9.25t-9.50-22.75l0.00-128.00 q0.00-13.00 9.50-22.50t 22.50-9.50l 192.00,0.00 q 13.50,0.00 22.75,9.50
t 9.25,22.50l0.00,128.00 zM 352.00,0.00q0.00-13.50 -9.25-22.75t-22.75-9.25l-192.00,0.00 q-13.00,0.00 -22.50,9.25t-9.50,22.75t 9.50,22.75t 22.50,9.25l 192.00,0.00 q 13.50,0.00 22.75-9.25t 9.25-22.75zM 32.25-32.00q-13.25,0.00 -22.75,9.25t-9.50,22.75t 9.50,22.75t 22.75,9.25t 22.50-9.25t 9.25-22.75t-9.25-22.75t-22.50-9.25z"  />
<glyph unicode="&#xf30d;" d="M 448.00,160.00l-32.00,0.00 l0.00,64.00 q 13.50,0.00 22.75,9.50t 9.25,22.50l0.00,128.00 q0.00,13.50 -9.25,22.75t-22.75,9.25l-192.00,0.00 q-13.50,0.00 -22.75-9.25t-9.25-22.75l0.00-64.00 l-64.00,0.00 l0.00,96.00 q0.00,26.50 18.75,45.25t 45.25,18.75l 256.00,0.00 q 26.50,0.00 45.25-18.75t 18.75-45.25l0.00-192.00 q0.00-26.50 -18.75-45.25t-45.25-18.75zM 384.00,224.00l0.00-192.00 q0.00-26.50 -18.75-45.25
t-45.25-18.75l-256.00,0.00 q-26.50,0.00 -45.25,18.75t-18.75,45.25l0.00,192.00 q0.00,26.50 18.75,45.25t 45.25,18.75l 256.00,0.00 q 26.50,0.00 45.25-18.75t 18.75-45.25zM 288.00,224.00l-192.00,0.00 q-13.50,0.00 -22.75-9.25t-9.25-22.75l0.00-128.00 q0.00-13.00 9.25-22.50t 22.75-9.50l 192.00,0.00 q 13.50,0.00 22.75,9.50t 9.25,22.50l0.00,128.00 q0.00,13.50 -9.25,22.75t-22.75,9.25z"  />
<glyph unicode="&#xf30c;" d="M 480.00,32.00l-448.00,0.00 q-13.50,0.00 -22.75,9.50t-9.25,22.50l0.00,64.00 q0.00,13.50 9.25,22.75t 22.75,9.25l 448.00,0.00 q 13.50,0.00 22.75-9.25t 9.25-22.75l0.00-64.00 q0.00-13.50 -9.25-22.75t-22.75-9.25zM 480.00,288.00l-448.00,0.00 q-13.50,0.00 -22.75,9.50t-9.25,22.50l0.00,64.00 q0.00,13.50 9.25,22.75t 22.75,9.25l 448.00,0.00 q 13.50,0.00 22.75-9.25t 9.25-22.75l0.00-64.00 q0.00-13.00 -9.25-22.50
t-22.75-9.50z"  />
<glyph unicode="&#xf30b;" d="M 512.00,52.00l0.00-64.50 q0.00-13.50 -9.25-18.00t-22.75,3.00l-448.00,165.00q-13.50,7.50 -22.75,22.00t-9.25,28.00l0.00,72.50 q0.00,13.00 9.25,27.75t 22.75,21.75l 448.00,165.00q 13.50,7.50 22.75,3.25t 9.25-17.75l0.00-64.50 q0.00-13.50 -9.25-28.25t-22.75-21.75l-330.50-122.00l 330.50-122.00q 13.50-7.00 22.75-21.50t 9.25-28.00z"  />
<glyph unicode="&#xf30a;" d="M 480.00,137.50l-448.00-165.00q-13.50-7.50 -22.75-3.00t-9.25,18.00l0.00,64.50 q0.00,13.50 9.25,28.00t 22.75,22.00l 330.50,122.00l-330.50,122.00q-13.50,7.00 -22.75,21.75t-9.25,27.75l0.00,65.00 q0.00,13.50 9.25,17.75t 22.75-3.25l 448.00-165.00q 13.00-7.50 22.50-22.00t 9.50-28.00l0.00-72.50 q0.00-13.50 -9.50-28.00t-22.50-22.00z"  />
<glyph unicode="&#xf309;" d="M 480.00,192.00l-160.00,0.00 q0.00-13.00 -9.50-22.50t-22.50-9.50l-64.00,0.00 q-13.50,0.00 -22.75,9.50t-9.25,22.50l-160.00,0.00 q-13.50,0.00 -22.75,9.50t-9.25,22.75t 9.25,22.50t 22.75,9.25l 160.00,0.00 q0.00,13.50 9.25,22.75t 22.75,9.25l 64.00,0.00 q 13.50,0.00 22.75-9.25t 9.25-22.75l 160.00,0.00 q 13.50,0.00 22.75-9.25t 9.25-22.50t-9.25-22.75t-22.75-9.50zM 288.00,256.00l-64.00,0.00 l0.00-64.00 l 64.00,0.00 l0.00,64.00 
zM 480.00,384.00l-32.00,0.00 q0.00-13.00 -9.50-22.50t-22.50-9.50l-64.00,0.00 q-13.50,0.00 -22.75,9.50t-9.25,22.50l-288.00,0.00 q-13.50,0.00 -22.75,9.50t-9.25,22.75t 9.25,22.50t 22.75,9.25l 288.00,0.00 q0.00,13.50 9.25,22.75t 22.75,9.25l 64.00,0.00 q 13.50,0.00 22.75-9.25t 9.25-22.75l 32.00,0.00 q 13.50,0.00 22.75-9.25t 9.25-22.50t-9.25-22.75t-22.75-9.50zM 416.00,448.00l-64.00,0.00 l0.00-64.00 l 64.00,0.00 l0.00,64.00 z
M 32.00,64.00l 32.00,0.00 q0.00,13.50 9.25,22.75t 22.75,9.25l 64.00,0.00 q 13.00,0.00 22.50-9.25t 9.50-22.75l 288.00,0.00 q 13.50,0.00 22.75-9.25t 9.25-22.50t-9.50-22.75t-22.50-9.50l-288.00,0.00 q0.00-13.50 -9.50-22.75t-22.50-9.25l-64.00,0.00 q-13.50,0.00 -22.75,9.50t-9.25,22.50l-32.00,0.00 q-13.50,0.00 -22.75,9.50t-9.25,22.75t 9.25,22.50t 22.75,9.25zM 96.00,0.00l 64.00,0.00 l0.00,64.00 l-64.00,0.00 l0.00-64.00 z"  />
<glyph unicode="&#xf307;" d="M 496.00,96.50l-54.00,0.00 q-6.00-17.50 -19.00-32.00l 23.50-41.50q 3.00-6.00 1.25-12.00t-6.75-9.50l-26.50-15.50q-5.50-3.00 -11.50-1.50t-9.00,7.50l-24.00,42.00q-10.00-2.00 -18.00-2.00t-18.00,2.00l-24.00-42.00q-3.00-6.00 -9.00-7.50t-11.50,1.50l-26.50,15.50q-5.00,3.50 -6.75,9.50t 1.25,12.00l 23.50,41.50q-13.00,14.50 -19.00,32.00l-54.00,0.00 q-6.50,0.00 -11.25,4.50t-4.75,11.50l0.00,32.00 q0.00,6.50 4.75,11.25t 11.25,4.75l 54.00,0.00 
q 6.00,17.00 19.00,31.50l-23.50,41.50q-3.00,6.00 -1.25,12.00t 6.75,9.50l 26.50,15.50q 5.50,3.00 11.50,1.50t 9.00-7.00l 24.00-42.50q 10.00,2.00 18.00,2.00t 18.00-2.00l 24.00,42.50q 3.00,5.50 9.00,7.00t 11.50-1.50l 26.50-15.50q 5.00-3.50 6.75-9.50t-1.25-12.00l-23.50-41.50q 13.00-14.50 19.00-31.50l 54.00,0.00 q 6.50,0.00 11.25-4.75t 4.75-11.25l0.00-32.00 q0.00-7.00 -4.75-11.50t-11.25-4.50zM 352.00,160.50q-13.50,0.00 -22.75-9.50
t-9.25-22.75t 9.25-22.50t 22.75-9.25t 22.75,9.25t 9.25,22.50t-9.25,22.75t-22.75,9.50zM 304.00,288.50l-54.00,0.00 q-6.00-17.50 -19.00-32.00l 23.50-41.50q 3.00-5.50 1.25-11.75t-6.75-9.75l-26.50-15.50q-5.50-3.00 -11.50-1.25t-9.00,7.25l-24.00,42.00q-9.50-1.50 -18.00-1.50t-18.00,1.50l-24.00-42.00q-3.00-5.50 -9.00-7.25t-11.50,1.25l-26.50,15.50q-5.00,3.50 -6.75,9.75
t 1.25,11.75l 23.50,41.50q-13.00,14.50 -19.00,32.00l-54.00,0.00 q-6.50,0.00 -11.25,4.50t-4.75,11.50l0.00,32.00 q0.00,6.50 4.75,11.25t 11.25,4.75l 54.00,0.00 q 6.00,17.00 19.00,32.00l-23.50,41.50q-3.00,5.50 -1.25,11.75t 6.75,9.25l 26.50,15.50q 5.50,3.50 11.50,1.75t 9.00-7.25l 24.00-42.50q 10.00,2.00 18.00,2.00t 18.00-2.00l 24.00,42.50q 3.00,5.50 9.00,7.25t 11.50-1.75l 26.50-15.50q 5.00-3.00 6.75-9.25t-1.25-11.75l-23.50-41.50
q 13.00-15.00 19.00-32.00l 54.00,0.00 q 6.50,0.00 11.25-4.75t 4.75-11.25l0.00-32.00 q0.00-7.00 -4.75-11.50t-11.25-4.50zM 160.00,352.50q-13.50,0.00 -22.75-9.50t-9.25-22.75t 9.25-22.50t 22.75-9.25t 22.75,9.25t 9.25,22.50t-9.25,22.75t-22.75,9.50z"  />
<glyph unicode="&#xf308;" d="M 512.00,160.00q 1.00-9.00 1.00-16.00t-1.00-16.00l-32.00,0.00 q-1.50-12.00 -4.50-24.00l 29.50-12.50q-4.50-14.50 -12.00-29.50l-30.00,12.50q-5.50-10.50 -13.50-20.50l 22.50-22.50q-10.00-12.50 -22.50-22.50l-22.50,22.50q-10.00-8.00 -20.50-13.50l 12.50-29.50q-15.00-8.00 -29.50-12.50l-12.50,29.50q-12.00-3.00 -24.00-4.50l0.00-32.00 q-9.00-1.00 -16.00-1.00t-16.00,1.00l0.00,32.00 q-12.00,1.50 -24.00,4.50l-12.00-29.50q-15.00,4.50 -30.00,12.50l 12.50,29.50
q-10.50,5.50 -20.00,13.50l-23.00-22.50q-12.50,10.00 -22.50,22.50l 22.50,22.50q-7.50,10.00 -13.50,20.50l-29.50-12.50q-8.00,15.00 -12.50,29.50l 30.00,12.50q-3.50,12.00 -5.00,24.00l-32.00,0.00 q-1.00,9.00 -1.00,16.00t 1.00,16.00l 32.00,0.00 q 1.50,12.00 5.00,24.00l-30.00,12.50q 4.50,14.50 12.50,29.50l 29.50-12.50q 6.00,10.50 13.50,20.50l-22.50,22.50q 10.00,12.50 22.50,22.50l 23.00-22.50q 9.50,8.00 20.00,13.50l-12.50,30.00q 15.00,7.50 30.00,12.00l 12.00-29.50q 12.00,3.50 24.00,4.50l0.00,32.00 
q 9.00,1.00 16.00,1.00t 16.00-1.00l0.00-32.00 q 12.00-1.00 24.00-4.50l 12.50,29.50q 14.50-4.50 29.50-12.00l-12.50-30.00q 10.50-6.00 20.50-13.50l 22.50,22.50q 12.50-10.00 22.50-22.50l-22.50-22.50q 8.00-10.00 13.50-20.50l 30.00,12.50q 7.50-15.00 12.00-29.50l-29.50-12.50q 3.00-12.00 4.50-24.00l 32.00,0.00 zM 337.00,224.00q-33.00,0.00 -56.50-23.50t-23.50-56.50t 23.50-56.50t 56.50-23.50t 56.50,23.50t 23.50,56.50t-23.50,56.50t-56.50,23.50zM 224.50,331.00l-6.00-15.50
q-1.50-3.00 -4.75-4.50t-6.25,0.00l-28.50,11.50q-8.50-12.00 -20.50-20.00l 12.00-28.50q 1.50-3.50 0.00-6.50t-4.50-4.50l-15.50-6.50q-3.00-1.50 -6.25,0.00t-4.75,4.50l-12.00,28.50q-8.00-1.50 -14.50-1.50q-6.00,0.00 -14.00,1.50l-12.00-28.50q-1.00-3.00 -4.25-4.50t-6.75,0.00l-15.00,6.50q-3.50,1.00 -4.75,4.25t-0.25,6.75l 12.00,28.00q-12.00,8.50 -20.50,20.50l-28.50-12.00q-3.00-1.00 -6.25,0.25t-4.75,4.25l-6.00,15.50
q-1.50,3.50 -0.25,6.75t 4.75,4.25l 28.00,12.00q-1.50,8.00 -1.50,14.50q0.00,6.00 1.50,14.50l-28.50,11.50q-3.00,1.50 -4.25,4.50t-0.25,6.50l 6.50,15.50q 1.50,3.00 4.50,4.50t 6.50,0.00l 28.50-11.50q 8.00,12.00 20.00,20.00l-11.50,28.50q-1.50,3.50 -0.25,6.50t 4.75,4.50l 15.50,6.50q 3.00,1.50 6.25,0.00t 4.75-4.50l 11.50-28.50q 8.00,1.50 14.50,1.50t 14.50-1.50l 11.50,28.50q 1.50,3.50 4.75,4.75t 6.25-0.25l 15.50-6.50q 3.50-1.00 4.75-4.25t-0.25-6.25
l-11.50-28.50q 12.00-8.50 20.50-20.50l 28.00,12.00q 3.50,1.00 6.75-0.25t 4.25-4.25l 6.50-15.50q 1.50-3.50 0.25-6.75t-4.75-4.25l-28.50-12.00q 1.50-8.00 1.50-14.50t-1.50-14.50l 28.50-11.50q 3.50-1.50 4.75-4.50t-0.25-6.50zM 113.25,416.00q-19.75,0.00 -34.00-14.00t-14.25-34.00t 14.25-34.00t 34.00-14.00t 33.75,14.00t 14.00,34.00t-14.00,34.00t-33.75,14.00z"  />
<glyph unicode="&#xf306;" d="M 496.00,192.00l-51.00,0.00 q-7.00-43.50 -33.00-79.50l 31.50-32.00q 4.50-4.50 4.50-11.00t-4.50-11.00l-22.00-22.00q-4.50-4.50 -11.00-4.50t-11.00,4.50l-32.00,31.50q-36.00-26.00 -79.50-33.00l0.00-51.00 q0.00-6.50 -4.75-11.25t-11.25-4.75l-32.00,0.00 q-6.50,0.00 -11.25,4.75t-4.75,11.25l0.00,51.00 q-43.50,7.00 -79.50,33.00l-32.00-31.50q-4.50-4.50 -11.00-4.50t-11.00,4.50l-22.00,22.00q-4.50,4.50 -4.50,11.00t 4.50,11.00l 31.50,32.00
q-26.00,36.00 -33.00,79.50l-51.00,0.00 q-6.50,0.00 -11.25,4.75t-4.75,11.25l0.00,32.00 q0.00,6.50 4.75,11.25t 11.25,4.75l 51.00,0.00 q 7.00,43.00 33.00,79.50l-31.50,31.50q-4.50,4.50 -4.50,11.00t 4.50,11.00l 22.00,22.50q 4.50,4.50 11.00,4.50t 11.00-4.50l 32.00-32.00q 36.00,26.00 79.50,33.50l0.00,51.00 q0.00,6.50 4.75,11.25t 11.25,4.75l 32.00,0.00 q 6.50,0.00 11.25-4.75t 4.75-11.25l0.00-51.00 q 43.50-7.50 79.50-33.50l 32.00,32.00q 4.50,4.50 11.00,4.50t 11.00-4.50
l 22.00-22.50q 4.50-4.50 4.50-11.00t-4.50-11.00l-31.50-31.50q 26.00-36.50 33.00-79.50l 51.00,0.00 q 6.50,0.00 11.25-4.75t 4.75-11.25l0.00-32.00 q0.00-6.50 -4.75-11.25t-11.25-4.75zM 256.00,352.00q-53.00,0.00 -90.75-37.50t-37.75-90.50t 37.75-90.50t 90.75-37.50t 90.75,37.50t 37.75,90.50t-37.75,90.50t-90.75,37.50z"  />
<glyph unicode="&#xf2c5;" d="M 26.00,271.00l 147.50,140.00q 11.00,11.50 35.50,24.25t 39.50,12.75l 188.50,0.00 q 31.00,0.00 53.00-21.75t 22.00-52.75l0.00-299.00 q0.00-30.50 -22.00-52.50t-53.00-22.00l-188.50,0.00 q-15.00,0.00 -41.00,12.50t-34.00,25.00l-147.50,139.50q-26.00,20.00 -26.00,47.00t 26.00,47.00z"  />
<glyph unicode="&#xf2c4;" d="M 201.00-6.50l-131.50,148.00q-12.00,11.50 -24.75,36.00t-12.75,39.50l0.00,188.00 q0.00,31.00 22.00,53.00t 52.50,22.00l 299.00,0.00 q 31.00,0.00 52.75-22.00t 21.75-53.00l0.00-188.00 q0.00-15.50 -12.50-41.25t-24.50-34.25l-132.00-148.00q-23.50-25.50 -55.00-25.50t-55.00,25.50z"  />
<glyph unicode="&#xf2c3;" d="M 480.00,128.00l-80.00,0.00 q-6.50,0.00 -16.75,5.50t-15.25,10.50l-64.00,64.00q-9.50,9.50 -9.50,16.00t 9.50,16.00l 64.00,64.00q 3.50,5.50 14.50,10.75t 17.50,5.25l 80.00,0.00 q 13.00,0.00 22.50-9.25t 9.50-22.75l0.00-128.00 q0.00-13.00 -9.50-22.50t-22.50-9.50zM 336.00,336.00l-64.00-64.00q-9.50-9.50 -16.00-9.50t-16.00,9.50l-64.00,64.00q-5.00,5.00 -10.50,15.25t-5.50,16.75l0.00,80.00 q0.00,13.50 9.50,22.75t 22.50,9.25
l 128.00,0.00 q 13.50,0.00 22.75-9.25t 9.25-22.75l0.00-80.00 q0.00-6.50 -5.25-17.50t-10.75-14.50zM 208.00,208.00l-64.00-64.00q-5.00-5.00 -15.25-10.50t-16.75-5.50l-80.00,0.00 q-13.00,0.00 -22.50,9.50t-9.50,22.50l0.00,128.00 q0.00,13.50 9.50,22.75t 22.50,9.25l 80.00,0.00 q 6.50,0.00 17.50-5.25t 14.50-10.75l 64.00-64.00q 9.50-9.50 9.50-16.00t-9.50-16.00zM 240.00,176.00q 9.50,9.50 16.00,9.50t 16.00-9.50l 64.00-64.00
q 5.50-3.50 10.75-14.50t 5.25-17.50l0.00-80.00 q0.00-13.00 -9.50-22.50t-22.50-9.50l-128.00,0.00 q-13.50,0.00 -22.75,9.50t-9.25,22.50l0.00,80.00 q0.00,6.50 5.50,16.75t 10.50,15.25z"  />
<glyph unicode="&#xf2c6;" d="M 303.00,454.00l 139.50-147.50q 11.50-11.00 24.25-35.50t 12.75-39.50l0.00-188.00 q0.00-31.50 -21.75-53.50t-52.75-22.00l-298.50,0.00 q-31.00,0.00 -52.75,22.00t-21.75,53.50l0.00,188.00 q0.00,15.00 12.50,41.00t 25.00,34.00l 139.50,147.50q 20.00,26.00 47.00,26.00t 47.00-26.00z"  />
<glyph unicode="&#xf2c7;" d="M 486.00,271.00l-147.50,140.00q-11.00,11.50 -35.50,24.25t-39.50,12.75l-188.00,0.00 q-31.50,0.00 -53.50-21.75t-22.00-52.75l0.00-299.00 q0.00-31.00 22.00-52.75t 53.50-21.75l 188.00,0.00 q 15.00,0.00 41.00,12.50t 34.00,25.00l 147.50,139.50q 26.00,20.00 26.00,47.00t-26.00,47.00z"  />
<glyph unicode="&#xf2c8;" d="M 288.00,0.00q-63.00,0.00 -116.00,32.50t-81.50,86.50l 25.00-15.50q 6.50-5.00 17.00-5.25t 19.00,5.50t 8.50,15.75l-0.50,209.00q0.00,10.50 -8.50,16.00t-19.00,5.25t-16.50-5.25l-25.00-15.00q 29.00,54.00 81.75,86.25t 115.75,32.25q 45.50,0.00 87.00-17.75t 71.50-47.75t 47.75-71.50t 17.75-87.00t-17.75-87.00t-47.75-71.50t-71.50-47.75t-87.00-17.75zM 128.00,299.50l0.00-151.00 
q-6.50-4.50 -15.25-4.50t-15.25,4.50l-91.00,65.00q-6.50,4.50 -6.50,10.75t 6.50,10.75l 91.00,64.50q 6.00,4.50 15.00,4.50t 15.50-4.50z"  />
<glyph unicode="&#xf2c9;" d="M 505.50,213.50l-91.00-65.00q-6.50-4.50 -15.25-4.50t-15.25,4.50l0.00,151.00 q 6.50,4.50 15.50,4.50t 15.00-4.50l 91.00-64.50q 6.50-4.50 6.50-10.75t-6.50-10.75zM 352.00,328.50l0.00-209.00 q0.00-10.00 8.50-15.75t 19.00-5.50t 17.00,5.25l 25.00,15.50q-28.50-54.00 -81.50-86.50t-116.00-32.50q-45.50,0.00 -87.00,17.75t-71.50,47.75t-47.75,71.50t-17.75,87.00t 17.75,87.00t 47.75,71.50t 71.50,47.75
t 87.00,17.75q 63.00,0.00 115.75-32.25t 81.75-86.25l-25.00,15.00q-6.00,5.00 -16.50,5.25t-19.25-5.25t-8.75-16.00z"  />
<glyph unicode="&#xf2ca;" d="M 256.00-32.00q-45.50,0.00 -87.00,17.75t-71.50,47.75t-47.75,71.50t-17.75,87.00q0.00,63.00 32.50,116.00t 86.50,81.50l-15.50-25.00q-5.00-6.50 -5.25-17.00t 5.50-19.00t 15.75-8.50l 209.00,0.50q 10.50,0.00 16.00,8.50t 5.25,19.00t-5.25,16.50l-15.00,25.00q 54.00-29.00 86.25-81.75t 32.25-115.75q0.00-45.50 -17.75-87.00t-47.75-71.50t-71.50-47.75t-87.00-17.75zM 180.50,352.00
q-4.50,6.50 -4.50,15.25t 4.50,15.25l 65.00,91.00q 4.50,6.50 10.75,6.50t 10.75-6.50l 64.50-91.00q 4.50-6.00 4.50-15.00t-4.50-15.50l-151.00,0.00 z"  />
<glyph unicode="&#xf2cb;" d="M 361.50,58.50l 15.00,25.00q 5.00,6.00 5.25,16.50t-5.25,19.00t-16.00,8.50l-209.00,0.50q-10.00,0.00 -15.75-8.50t-5.50-19.00t 5.25-17.00l 15.50-25.00q-54.00,28.50 -86.50,81.50t-32.50,116.00q0.00,45.50 17.75,87.00t 47.75,71.50t 71.50,47.75t 87.00,17.75t 87.00-17.75t 71.50-47.75t 47.75-71.50t 17.75-87.00q0.00-63.00 -32.25-115.75t-86.25-81.75zM 331.50,96.00
q 4.50-6.50 4.50-15.50t-4.50-15.00l-64.50-91.00q-4.50-6.50 -10.75-6.50t-10.75,6.50l-65.00,91.00q-4.00,6.50 -4.00,15.25t 4.00,15.25l 151.00,0.00 z"  />
<glyph unicode="&#xf27f;" d="M 384.50,16.00q-48.50-48.00 -96.50-48.00q 28.00,27.00 38.00,54.75t 10.00,73.25q0.00,21.00 -17.75,60.75t-35.75,70.25t-18.00,29.00q-1.00-5.00 -2.75-13.00t-9.00-30.50t-16.25-42.00t-25.25-41.00t-35.25-33.50q-15.50-10.00 -16.50-33.25t 8.50-48.00t 24.00-46.75q-27.00,0.00 -88.00,58.00q-20.50,19.00 -30.25,43.00t-9.75,43.00q0.00,32.00 17.75,66.75t 47.75,61.25
q 25.50,23.00 41.25,48.50t 20.25,48.25t 3.75,44.75t-6.75,39.50t-12.00,31.00t-11.00,20.50l-5.00,7.50q 6.50-2.50 17.25-7.50t 41.50-22.00t 58.25-35.50t 60.00-47.75t 53.50-59.75q 29.00-42.00 44.25-91.25t 13.75-88.25q-1.00-20.00 -14.50-45.00t-26.00-40.25t-23.50-26.75z"  />
<glyph unicode="&#xf27e;" d="M 488.00,102.00q 21.50-31.50 28.25-62.25t-4.25-51.25t-39.00-20.50l-421.00,0.00 q-28.00,0.00 -39.00,20.50t-4.25,51.25t 28.25,62.25l 129.50,164.00l0.00,150.00 l-32.00,0.00 q-13.00,0.00 -22.50,9.25t-9.50,22.50t 9.50,22.75t 22.50,9.50l 256.00,0.00 q 13.00,0.00 22.50-9.50t 9.50-22.75t-9.50-22.50t-22.50-9.25l-32.00,0.00 l0.00-150.00 zM 294.50,256.00l0.00,160.00 l-64.00,0.00 l0.00-160.00 l-74.50-96.00l 213.00,0.00 z"  />
<glyph unicode="&#xf27d;" d="M 488.00,102.00q 21.50-31.50 28.25-62.25t-4.25-51.25t-39.00-20.50l-421.00,0.00 q-28.00,0.00 -39.00,20.50t-4.25,51.25t 28.25,62.25l 129.50,164.00l0.00,150.00 l-32.00,0.00 q-13.00,0.00 -22.50,9.25t-9.50,22.50t 9.50,22.75t 22.50,9.50l 256.00,0.00 q 13.00,0.00 22.50-9.50t 9.50-22.75t-9.50-22.50t-22.50-9.25l-32.00,0.00 l0.00-150.00 zM 294.50,256.00l0.00,160.00 l-64.00,0.00 l0.00-160.00 l-121.50-156.00q-16.00-16.50 -22.25-31.75
t 1.75-25.75t 32.00-10.50l 284.00,0.00 q 23.50,0.00 31.75,10.50t 2.00,25.75t-22.75,31.75z"  />
<glyph unicode="&#xf27c;" d="M 448.00,97.00l0.00,64.00 q0.00,13.50 -9.50,22.75t-22.50,9.25l-288.00,0.00 q-13.00,0.00 -22.50-9.25t-9.50-22.75l0.00-64.00 q-26.50,0.00 -45.25,18.75t-18.75,45.25l0.00,128.00 q0.00,26.50 18.75,45.25t 45.25,18.75l0.00-64.00 q0.00-13.50 9.50-22.75t 22.50-9.25l 288.00,0.00 q 13.00,0.00 22.50,9.25t 9.50,22.75l0.00,64.00 q 26.50,0.00 45.25-18.75t 18.75-45.25l0.00-128.00 q0.00-26.50 -18.75-45.25t-45.25-18.75z
M 400.00,289.00l-256.00,0.00 q-6.50,0.00 -11.25,4.75t-4.75,11.25l0.00,160.00 q0.00,6.50 4.75,11.25t 11.25,4.75l 256.00,0.00 q 6.50,0.00 11.25-4.75t 4.75-11.25l0.00-160.00 q0.00-6.50 -4.75-11.25t-11.25-4.75zM 144.00,161.00q 6.50,0.00 11.25-4.50t 4.75-11.00l0.00-160.50 q0.00-6.50 -4.75-11.25t-11.25-4.75t-11.25,4.75t-4.75,11.25l0.00,160.50 q0.00,6.50 4.75,11.00t 11.25,4.50zM 208.00,161.00q 7.00,0.00 11.50-4.50
t 4.50-11.00l0.00-128.50 q0.00-6.50 -4.50-11.25t-11.50-4.75t-11.50,4.75t-4.50,11.25l0.00,128.50 q0.00,6.50 4.50,11.00t 11.50,4.50zM 272.00,161.00q 6.50,0.00 11.25-4.50t 4.75-11.00l0.00-96.50 q0.00-6.50 -4.75-11.00t-11.25-4.50t-11.25,4.50t-4.75,11.00l0.00,96.50 q0.00,6.50 4.75,11.00t 11.25,4.50zM 336.00,161.00q 7.00,0.00 11.50-4.50t 4.50-11.00l0.00-160.50 q0.00-6.50 -4.50-11.25t-11.50-4.75t-11.50,4.75t-4.50,11.25l0.00,160.50 q0.00,6.50 4.50,11.00
t 11.50,4.50zM 400.00,161.00q 6.50,0.00 11.25-4.50t 4.75-11.00l0.00-128.50 q0.00-6.50 -4.75-11.25t-11.25-4.75t-11.25,4.75t-4.75,11.25l0.00,128.50 q0.00,6.50 4.75,11.00t 11.25,4.50z"  />
<glyph unicode="&#xf276;" d="M 480.25-32.00q-13.25,0.00 -22.75,9.25t-9.50,22.75l0.00,447.50 q0.00,13.50 9.50,22.75t 22.75,9.25t 22.50-9.25t 9.25-22.75l0.00-447.50 q0.00-13.50 -9.25-22.75t-22.50-9.25zM 400.00-32.00q-6.50,0.00 -11.25,4.75t-4.75,11.25l0.00,479.50 q0.00,7.00 4.75,11.50t 11.25,4.50t 11.25-4.50t 4.75-11.50l0.00-479.50 q0.00-6.50 -4.75-11.25t-11.25-4.75zM 320.25-32.00q-13.25,0.00 -22.75,9.25
t-9.50,22.75l0.00,447.50 q0.00,13.50 9.25,22.75t 22.75,9.25t 22.75-9.25t 9.25-22.75l0.00-447.50 q0.00-13.50 -9.25-22.75t-22.50-9.25zM 208.00-32.00q-6.50,0.00 -11.25,4.75t-4.75,11.25l0.00,479.50 q0.00,7.00 4.75,11.50t 11.25,4.50t 11.25-4.50t 4.75-11.50l0.00-479.50 q0.00-6.50 -4.75-11.25t-11.25-4.75zM 128.25-32.00q-13.25,0.00 -22.75,9.25t-9.50,22.75l0.00,447.50 q0.00,13.50 9.50,22.75
t 22.50,9.25t 22.50-9.25t 9.50-22.75l0.00-447.50 q0.00-13.50 -9.25-22.75t-22.50-9.25zM 32.25-32.00q-13.25,0.00 -22.75,9.25t-9.50,22.75l0.00,447.50 q0.00,13.50 9.25,22.75t 22.75,9.25t 22.75-9.25t 9.25-22.75l0.00-447.50 q0.00-13.50 -9.25-22.75t-22.50-9.25z"  />
<glyph unicode="&#xf277;" d="M 512.00,284.50l-45.50-61.00l 45.50-60.50q-2.00-9.00 -3.50-14.50l-70.00-30.00l 8.50-75.50q-4.50-5.00 -10.00-10.50l-75.50,9.00l-30.50-70.00l-14.00-3.50l-61.00,45.50l-61.00-45.50q-9.00,2.00 -14.00,3.50l-30.50,70.00l-75.50-9.00q-3.50,4.00 -10.00,10.50l 8.50,75.50l-70.00,30.00q-1.50,5.00 -3.50,14.50l 45.50,60.50l-45.50,61.00q 2.00,8.50 3.50,14.00l 70.00,30.00l-8.50,75.50q 4.50,5.00 10.00,10.50l 75.50-9.00l 30.50,70.00
q 4.50,1.50 14.00,3.50l 61.00-45.00l 61.00,45.00q 9.00-2.00 14.00-3.50l 30.50-70.00l 75.50,9.00q 5.00-5.00 10.00-10.50l-8.50-75.50l 70.00-30.00z"  />
<glyph unicode="&#xf271;" d="M 384.00-31.50q-22.50-0.50 -112.00-0.50t-112.00,0.50q-63.50,1.50 -95.75,8.50t-32.25,23.50q0.00,10.00 10.00,40.25t 22.00,63.50t 22.00,76.50t 10.00,75.75q0.00,96.00 176.00,96.00t 176.00-96.00q0.00-32.50 10.00-75.75t 22.00-76.50t 22.00-63.50t 10.00-40.25q0.00-16.50 -32.25-23.50t-95.75-8.50zM 272.00,240.50q 34.00,0.00 56.75-8.00t 23.25-23.50l0.00-0.50 q0.00-6.50 4.75-11.25t 11.25-4.75
t 11.25,4.75t 4.75,11.25q0.00,58.50 -96.00,63.50l0.00,16.50 q0.00,6.50 -4.75,11.25t-11.25,4.75t-11.25-4.75t-4.75-11.25l0.00-16.50 q-96.00-5.00 -96.00-63.50q0.00-11.00 3.25-19.00t 10.50-13.25t 15.75-8.50t 22.50-4.75t 27.00-2.00t 33.00-0.50q 34.50,0.00 57.25-8.25t 22.75-23.75t-22.75-23.75t-57.25-8.25q-34.00,0.00 -56.75,8.00t-23.25,23.50l0.00,0.50 q0.00,6.50 -4.75,11.25
t-11.25,4.75t-11.25-4.75t-4.75-11.25q0.00-58.50 96.00-63.50l0.00-16.50 q0.00-6.50 4.75-11.25t 11.25-4.75t 11.25,4.75t 4.75,11.25l0.00,16.50 q 96.00,5.00 96.00,63.50q0.00,64.00 -112.00,64.00q-7.00,0.00 -17.50-0.25t-17.00-0.50t-14.50,0.00t-13.00,1.25t-9.50,2.75t-6.50,5.00t-2.00,7.75q0.00,15.50 23.00,23.75t 57.00,8.25zM 272.00,384.50q-30.00,0.00 -55.00-3.00q-10.50,21.00 -17.75,40.75
t-7.25,26.25q0.00,8.00 13.00,16.00q 12.00-7.00 30.50-11.50t 36.50-4.50t 36.50,4.50t 30.50,11.50q 13.00-8.00 13.00-16.00q0.00-6.50 -7.25-26.25t-17.75-40.75q-25.00,3.00 -55.00,3.00z"  />
<glyph unicode="&#xf278;" d="M 480.00,32.00l-448.00,0.00 q-13.00,0.00 -22.50,9.25t-9.50,22.75l0.00,320.00 q0.00,13.00 9.25,22.50t 22.75,9.50l 448.00,0.00 q 13.00,0.00 22.50-9.50t 9.50-22.50l0.00-320.00 q0.00-13.50 -9.25-22.75t-22.75-9.25zM 480.00,288.00l-32.00,0.00 q-26.50,0.00 -45.25,18.75t-18.75,45.25l0.00,32.00 l-256.00,0.00 l0.00-32.00 q0.00-26.50 -18.75-45.25t-45.25-18.75l-32.00,0.00 l0.00-128.00 l 32.00,0.00 q 26.50,0.00 45.25-18.75t 18.75-45.25l0.00-32.00 l 256.00,0.00 
l0.00,32.00 q0.00,26.50 18.75,45.25t 45.25,18.75l 32.00,0.00 l0.00,128.00 zM 256.00,96.00q-40.00,0.00 -68.00,37.50t-28.00,90.50t 28.00,90.50t 68.00,37.50t 68.00-37.50t 28.00-90.50t-28.00-90.50t-68.00-37.50z"  />
<glyph unicode="&#xf261;" d="M 496.00,192.00l-17.50,0.00 q-5.00-32.00 -30.50-32.00t-30.50,32.00l-67.00,0.00 q-5.00-32.00 -30.50-32.00t-30.50,32.00l-99.00,0.00 q-5.00-32.00 -30.50-32.00t-30.50,32.00l-35.00,0.00 q-5.00-32.00 -30.50-32.00t-30.50,32.00l-17.50,0.00 q-6.50,0.00 -11.25,4.75t-4.75,11.25t 4.75,11.25t 11.25,4.75l 17.50,0.00 q 5.00,32.00 30.50,32.00t 30.50-32.00l 35.00,0.00 q 5.00,32.00 30.50,32.00t 30.50-32.00l 99.00,0.00 q 5.00,32.00 30.50,32.00t 30.50-32.00l 67.00,0.00 q 5.00,32.00 30.50,32.00
t 30.50-32.00l 17.50,0.00 q 6.50,0.00 11.25-4.75t 4.75-11.25t-4.75-11.25t-11.25-4.75zM 496.00,384.00l-17.50,0.00 q-5.00-32.00 -30.50-32.00t-30.50,32.00l-131.00,0.00 q-5.00-32.00 -30.50-32.00t-30.50,32.00l-35.00,0.00 q-5.00-32.00 -30.50-32.00t-30.50,32.00l-35.00,0.00 q-5.00-32.00 -30.50-32.00t-30.50,32.00l-17.50,0.00 q-6.50,0.00 -11.25,4.75t-4.75,11.25t 4.75,11.25t 11.25,4.75l 17.50,0.00 q 5.00,32.00 30.50,32.00t 30.50-32.00l 35.00,0.00 
q 5.00,32.00 30.50,32.00t 30.50-32.00l 35.00,0.00 q 5.00,32.00 30.50,32.00t 30.50-32.00l 131.00,0.00 q 5.00,32.00 30.50,32.00t 30.50-32.00l 17.50,0.00 q 6.50,0.00 11.25-4.75t 4.75-11.25t-4.75-11.25t-11.25-4.75zM 16.00,32.00l 177.50,0.00 q 5.00,32.00 30.50,32.00t 30.50-32.00l 67.00,0.00 q 5.00,32.00 30.50,32.00t 30.50-32.00l 35.00,0.00 q 5.00,32.00 30.50,32.00t 30.50-32.00l 17.50,0.00 q 6.50,0.00 11.25-4.75t 4.75-11.25t-4.75-11.25t-11.25-4.75l-17.50,0.00 
q-5.00-32.00 -30.50-32.00t-30.50,32.00l-35.00,0.00 q-5.00-32.00 -30.50-32.00t-30.50,32.00l-67.00,0.00 q-5.00-32.00 -30.50-32.00t-30.50,32.00l-177.50,0.00 q-6.50,0.00 -11.25,4.75t-4.75,11.25t 4.75,11.25t 11.25,4.75z"  />
<glyph unicode="&#xf260;" d="M 496.00,256.00l-208.00,0.00 l0.00,64.00 l 208.00,0.00 q 6.50,0.00 11.25-4.50t 4.75-11.50l0.00-32.00 q0.00-6.50 -4.75-11.25t-11.25-4.75zM 320.00,352.00l-160.00,0.00 q-26.50,0.00 -45.25,18.75t-18.75,45.25t 18.75,45.25t 45.25,18.75q 27.00,0.00 40.25-6.75t 16.75-20.00t 4.75-28.00t 9.25-35.25t 25.00-38.00l0.00,21.75 t 0.50,20.25t 1.75,20.00t 3.25,17.75t 5.25,16.50t 8.00,12.75t 11.25,10.50t 15.00,6.00t 19.00,2.50
q 26.50,0.00 45.25-18.75t 18.75-45.25t-18.75-45.25t-45.25-18.75zM 159.75,448.00q-13.25,0.00 -22.50-9.25t-9.25-22.50t 9.25-22.75t 22.50-9.50t 22.75,9.50t 9.50,22.75t-9.50,22.50t-22.75,9.25zM 319.75,448.00q-13.25,0.00 -22.50-9.25t-9.25-22.50t 9.50-22.75t 22.50-9.50t 22.50,9.50t 9.50,22.75t-9.50,22.50t-22.75,9.25zM 224.00,256.00l-208.00,0.00 
q-6.50,0.00 -11.25,4.75t-4.75,11.25l0.00,32.00 q0.00,7.00 4.75,11.50t 11.25,4.50l 208.00,0.00 l0.00-64.00 zM 224.00-32.00l-160.00,0.00 q-13.50,0.00 -22.75,9.50t-9.25,22.50l0.00,224.00 l 192.00,0.00 l0.00-256.00 zM 480.00,224.00l0.00-224.00 q0.00-13.00 -9.25-22.50t-22.75-9.50l-160.00,0.00 l0.00,256.00 l 192.00,0.00 z"  />
<glyph unicode="&#xf25f;" d="M 448.00-32.00l-384.00,0.00 q-26.50,0.00 -45.25,18.75t-18.75,45.25l0.00,160.00 q0.00,13.50 9.25,22.75t 22.75,9.25l 32.00,0.00 l0.00-32.00 q0.00-13.00 9.25-22.50t 22.75-9.50l 64.00,0.00 q 13.50,0.00 22.75,9.50t 9.25,22.50l0.00,32.00 l 128.00,0.00 l0.00-32.00 q0.00-13.00 9.25-22.50t 22.75-9.50l 64.00,0.00 q 13.50,0.00 22.75,9.50t 9.25,22.50l0.00,32.00 l 32.00,0.00 q 13.50,0.00 22.75-9.25t 9.25-22.75l0.00-160.00 q0.00-26.50 -18.75-45.25
t-45.25-18.75zM 400.00,256.00q 6.50,0.00 11.25-4.75t 4.75-11.25l0.00-32.00 q0.00-6.50 -4.75-11.25t-11.25-4.75l-32.00,0.00 q-6.50,0.00 -11.25,4.75t-4.75,11.25l0.00,32.00 q0.00,6.50 4.75,11.25t 11.25,4.75l 32.00,0.00 zM 144.00,256.00q 6.50,0.00 11.25-4.75t 4.75-11.25l0.00-32.00 q0.00-6.50 -4.75-11.25t-11.25-4.75l-32.00,0.00 q-6.50,0.00 -11.25,4.75t-4.75,11.25l0.00,32.00 q0.00,6.50 4.75,11.25
t 11.25,4.75l 32.00,0.00 zM 480.00,256.00l-32.00,0.00 q0.00,13.50 -9.25,22.75t-22.75,9.25l-64.00,0.00 q-13.50,0.00 -22.75-9.25t-9.25-22.75l-128.00,0.00 q0.00,13.50 -9.50,22.75t-22.50,9.25l-64.00,0.00 q-13.50,0.00 -22.75-9.25t-9.25-22.75l-32.00,0.00 q-13.50,0.00 -22.75,9.50t-9.25,22.50q0.00,3.50 0.50,6.50q 2.50,24.50 20.75,41.00t 42.75,16.50l 64.00,0.00 l0.00,32.00 q0.00,40.00 28.00,68.00t 68.00,28.00l 64.00,0.00 q 40.00,0.00 68.00-28.00
t 28.00-68.00l0.00-32.00 l 64.00,0.00 q 24.50,0.00 42.75-16.50t 20.75-41.00q 0.50-3.00 0.50-6.50q0.00-13.00 -9.25-22.50t-22.75-9.50zM 320.00,384.00q0.00,13.50 -9.50,22.75t-22.50,9.25l-64.00,0.00 q-13.50,0.00 -22.75-9.25t-9.25-22.75l0.00-32.00 l 128.00,0.00 l0.00,32.00 z"  />
<glyph unicode="&#xf25e;" d="M 480.00-32.00l-448.00,0.00 q-13.00,0.00 -22.50,9.50t-9.50,22.50l0.00,192.00 l 192.00,0.00 l0.00-32.00 q0.00-13.00 9.50-22.50t 22.50-9.50l 64.00,0.00 q 13.50,0.00 22.75,9.50t 9.25,22.50l0.00,32.00 l 192.00,0.00 l0.00-192.00 q0.00-13.50 -9.50-22.75t-22.50-9.25zM 288.00,192.25q0.00-13.25 -9.25-22.75t-22.50-9.50t-22.75,9.50t-9.50,22.75t 9.50,22.50t 22.75,9.25t 22.50-9.25t 9.25-22.50zM 288.00,256.00l-64.00,0.00 q-13.00,0.00 -22.50-9.25
t-9.50-22.75l-192.00,0.00 l0.00,96.00 q0.00,13.50 9.25,22.75t 22.75,9.25l 96.00,0.00 l0.00,32.00 q0.00,40.00 28.00,68.00t 68.00,28.00l 64.00,0.00 q 40.00,0.00 68.00-28.00t 28.00-68.00l0.00-32.00 l 96.00,0.00 q 13.00,0.00 22.50-9.25t 9.50-22.75l0.00-96.00 l-192.00,0.00 q0.00,13.50 -9.25,22.75t-22.75,9.25zM 320.00,384.00q0.00,13.50 -9.25,22.75t-22.75,9.25l-64.00,0.00 q-13.00,0.00 -22.50-9.25t-9.50-22.75l0.00-32.00 l 128.00,0.00 l0.00,32.00 z"  />
<glyph unicode="&#xf273;" d="M 480.00-32.00l-448.00,0.00 q-13.50,0.00 -22.75,9.25t-9.25,22.75l0.00,320.00 q0.00,13.00 9.25,22.50t 22.75,9.50l 64.00,0.00 l0.00,64.00 l 64.00,63.50l0.00-127.50 l 192.00,0.00 l0.00,127.50 l 64.00-63.50l0.00-64.00 l 64.00,0.00 q 13.00,0.00 22.50-9.50t 9.50-22.50l0.00-320.00 q0.00-13.50 -9.25-22.75t-22.75-9.25zM 192.00,479.50l 128.00,0.00 l0.00-63.50 l-128.00,0.00 l0.00,63.50 z"  />
<glyph unicode="&#xf259;" d="M 256.00-32.00q-52.00,0.00 -99.50,20.25t-81.75,54.50t-54.50,81.75t-20.25,99.50t 20.25,99.25t 54.50,81.50t 81.75,54.50t 99.50,20.25t 99.50-20.25t 81.75-54.50t 54.50-81.50t 20.25-99.25t-20.25-99.50t-54.50-81.75t-81.75-54.50t-99.50-20.25zM 160.00,288.00q0.00,32.50 26.50,48.25t 69.50,15.75t 69.50-11.50t 26.50-36.50q0.00-13.50 9.25-22.75
t 22.50-9.25t 22.75,9.25t 9.50,22.75l0.00,0.00 l0.00,0.00 q0.00,26.00 -19.25,49.50t-48.00,38.50t-61.25,20.50q 0.50,2.00 0.50,3.50q0.00,13.00 -9.50,22.25t-22.75,9.25t-22.50-9.25t-9.25-22.25l0.00-1.50 l0.00-1.00 q-24.50-4.00 -46.50-13.00t-40.75-23.75t-29.75-37.75t-11.00-51.00q0.00-47.00 43.00-71.50t 117.00-24.50l 12.50,0.00 q 15.50,0.00 23.00-0.25t 19.25-1.00t 17.50-2.75t 12.25-5.50t 9.00-9.00t 2.50-13.50
q0.00-33.00 -26.50-48.50t-69.50-15.50q-43.50,0.00 -69.75,11.50t-26.25,36.50q0.00,13.00 -9.50,22.50t-22.75,9.50t-22.50-9.50t-9.25-22.50l0.00,0.00 l0.00,0.00 q0.00-26.50 19.25-49.75t 48.00-38.25t 60.75-21.00l0.00-3.00 q0.00-13.50 9.25-22.75t 22.50-9.25t 22.75,9.25t 9.50,22.75q0.00,0.50 -0.25,1.25t-0.25,1.25q 25.00,3.50 47.00,12.50t 40.75,23.75t 29.75,37.75t 11.00,51.50q0.00,46.50 -43.00,71.25
t-117.00,24.75l-13.00,0.00 q-15.00-0.50 -22.50-0.25t-19.25,1.00t-17.50,2.75t-12.25,5.50t-9.00,9.25t-2.50,13.75z"  />
<glyph unicode="&#xf25a;" d="M 480.00,100.00l0.00-4.00 l-2.00,1.00q-33.50-59.00 -92.75-94.00t-129.25-35.00q-52.00,0.00 -99.50,20.25t-81.75,54.50t-54.50,81.75t-20.25,99.50t 20.25,99.25t 54.50,81.50t 81.75,54.50t 99.50,20.25q 70.00,0.00 129.25-35.00t 92.75-94.00l 2.00,1.50l0.00-4.50 q 32.00-57.50 32.00-123.50t-32.00-124.00zM 224.00,128.00q 13.50,0.00 22.75,9.25t 9.25,22.50t-9.25,22.75t-22.75,9.50l-60.50,0.00 
q-3.50,16.00 -3.50,32.00q0.00,15.50 3.50,32.00l 60.50,0.00 q 13.00,0.00 22.50,9.25t 9.50,22.50t-9.25,22.75t-22.75,9.50l-26.00,0.00 q 32.00,32.00 74.00,32.00q 30.50,0.00 56.25-17.50t 40.25-46.50l-0.50,0.00 q 3.50-7.50 12.75-11.75t 19.25-4.25q 13.50,0.00 22.75,9.25t 9.25,22.75q0.00,17.00 -14.00,26.50q-24.50,39.00 -62.75,62.25t-83.25,23.25q-48.00,0.00 -88.50-26.25t-64.00-69.75l-23.50,0.00 q-13.00,0.00 -22.50-9.50
t-9.50-22.75t 9.50-22.50t 22.50-9.25l 2.50,0.00 q-2.50-17.00 -2.50-32.00t 2.50-32.00l-2.50,0.00 q-13.00,0.00 -22.50-9.50t-9.50-22.75t 9.50-22.50t 22.50-9.25l 23.50,0.00 q 23.50-44.00 64.00-70.00t 88.50-26.00q 45.00,0.00 83.25,23.00t 62.75,62.50q 14.00,9.50 14.00,26.50q0.00,13.00 -9.25,22.50t-22.75,9.50q-10.00,0.00 -19.25-4.25t-12.75-11.75l 0.50-0.50q-14.50-29.00 -40.25-46.25t-56.25-17.25
q-42.00,0.00 -74.00,32.00l 26.00,0.00 z"  />
<glyph unicode="&#xf25b;" d="M 447.75,256.00q-13.25,0.00 -22.50,9.25t-9.25,22.75q0.00,53.00 -37.50,90.50t-90.50,37.50t-90.50-37.50t-37.50-90.50q0.00-26.00 8.50-64.00l 87.50,0.00 q 13.00,0.00 22.50-9.50t 9.50-22.75t-9.50-22.50t-22.50-9.25l-72.50,0.00 q 8.50-38.00 8.50-64.00q0.00-32.00 -17.00-64.00l 273.00,0.00 q 13.00,0.00 22.50-9.50t 9.50-22.75t-9.50-22.50t-22.50-9.25l-320.00,0.00 q-13.00,0.00 -22.50,9.75t-9.50,22.75
q0.00,7.00 5.00,16.75t 11.00,19.25t 11.00,25.50t 5.00,34.00q0.00,26.50 -9.00,64.00l-55.00,0.00 q-13.50,0.00 -22.75,9.25t-9.25,22.50t 9.25,22.75t 22.75,9.50l 39.50,0.00 q-7.50,35.50 -7.50,64.00q0.00,52.00 25.75,96.25t 70.00,70.00t 96.25,25.75t 96.25-25.75t 70.00-70.00t 25.75-96.25q0.00-13.50 -9.50-22.75t-22.75-9.25z"  />
<glyph unicode="&#xf25c;" d="M 256.00-32.00q-52.00,0.00 -99.50,20.25t-81.75,54.50t-54.50,81.75t-20.25,99.50t 20.25,99.25t 54.50,81.50t 81.75,54.50t 99.50,20.25t 99.50-20.25t 81.75-54.50t 54.50-81.50t 20.25-99.25t-20.25-99.50t-54.50-81.75t-81.75-54.50t-99.50-20.25zM 224.00,192.00l 32.00,0.00 q 13.00,0.00 22.50,9.25t 9.50,22.50t-9.50,22.75t-22.50,9.50l-56.00,0.00 l-1.00,3.00
q-7.00,14.00 -7.00,29.00q0.00,26.50 18.75,45.25t 45.25,18.75t 45.25-18.75t 18.75-45.25q0.00-13.50 9.25-22.75t 22.50-9.25t 22.75,9.25t 9.50,22.75q0.00,53.00 -37.50,90.50t-90.50,37.50t-90.50-37.50t-37.50-90.50q0.00-14.50 4.50-32.00l-4.50,0.00 q-13.00,0.00 -22.50-9.50t-9.50-22.75t 9.50-22.50t 22.50-9.25l 32.00,0.00 q0.00-17.50 -5.00-33.00t-11.00-24.50t-11.00-19.50t-5.00-19.00
q0.00-13.50 9.50-22.75t 22.50-9.25l 192.00,0.00 q 13.00,0.00 22.50,9.25t 9.50,22.50t-9.50,22.75t-22.50,9.50l-146.00,0.00 q 8.00,7.50 12.25,23.50t 5.25,28.50z"  />
<glyph unicode="&#xf25d;" d="M 256.00-32.00q-52.00,0.00 -99.50,20.25t-81.75,54.50t-54.50,81.75t-20.25,99.50t 20.25,99.25t 54.50,81.50t 81.75,54.50t 99.50,20.25t 99.50-20.25t 81.75-54.50t 54.50-81.50t 20.25-99.25t-20.25-99.50t-54.50-81.75t-81.75-54.50t-99.50-20.25zM 407.00,375.00q-9.00,9.00 -21.75,9.00t-21.75-9.00l-107.50-81.00l-108.00,81.00q-9.00,9.00 -21.75,9.00
t-21.75-9.00t-9.00-21.75t 9.00-21.75l 119.50-90.00l0.00-17.50 l-48.00,0.00 q-6.50,0.00 -11.25-4.75t-4.75-11.50t 4.75-11.25t 11.25-4.50l 48.00,0.00 l0.00-32.00 l-48.00,0.00 q-6.50,0.00 -11.25-4.75t-4.75-11.25t 4.75-11.25t 11.25-4.75l 48.00,0.00 l0.00-64.00 q0.00-13.50 9.25-22.75t 22.50-9.25t 22.75,9.25t 9.50,22.75l0.00,64.00 l 48.00,0.00 q 6.50,0.00 11.25,4.75t 4.75,11.25t-4.75,11.25t-11.25,4.75
l-48.00,0.00 l0.00,32.00 l 48.00,0.00 q 6.50,0.00 11.25,4.50t 4.75,11.25t-4.75,11.50t-11.25,4.75l-48.00,0.00 l0.00,17.50 l 119.00,90.00q 9.00,9.00 9.00,21.75t-9.00,21.75z"  />
<glyph unicode="&#xf257;" d="M 512.00,224.00q0.00-43.50 -17.00-82.75t-47.50-69.75l 29.50-71.50q 5.50-13.00 -0.25-22.50t-19.75-9.50l-66.50,0.00 q-14.00,0.00 -27.50,9.50t-19.00,22.50l-4.00,9.50q-34.00-9.50 -68.00-9.50q-19.50,0.00 -38.50,3.00l-1.50-3.00q-5.50-13.00 -19.00-22.50t-27.50-9.50l-66.50,0.00 q-14.00,0.00 -19.75,9.50t-0.25,22.50l 22.50,55.00q-47.50,42.00 -65.00,105.00l-24.50,0.00 q-13.00,0.00 -22.50,18.75t-9.50,45.25t 9.50,45.25
t 22.50,18.75l 25.00,0.00 q 10.50,37.50 32.00,68.00q-2.50,9.50 -7.00,23.50t-7.75,24.50t-6.25,23.00t-3.50,21.25t 1.25,16.25t 7.75,11.50t 16.50,4.00q 25.50,0.00 50.00-13.50t 42.00-36.00q 42.00,17.50 90.00,17.50q 77.50,0.00 140.50-42.50q 16.00,10.50 35.50,10.50q 26.50,0.00 45.25-18.75t 18.75-45.25q0.00-25.50 -17.50-44.00q 17.50-40.50 17.50-84.00zM 159.75,320.00q-13.25,0.00 -22.50-9.25t-9.25-22.50t 9.25-22.75
t 22.50-9.50t 22.75,9.50t 9.50,22.75t-9.50,22.50t-22.75,9.25z"  />
</font>
</defs>
</svg>
